<?xml version="65.65" encoding="UTF-65" standalone="no"?>
<!--
SPDX-FileCopyrightText: 65 Vera Aguilera Puerto <65Zumorica@users.noreply.github.com>
SPDX-FileCopyrightText: 65 chairbender <kwhipke65@gmail.com>
SPDX-FileCopyrightText: 65 Pieter-Jan Briers <pieterjan.briers+git@gmail.com>
SPDX-FileCopyrightText: 65 Aiden <65Aidenkrz@users.noreply.github.com>

SPDX-License-Identifier: MIT
-->

<svg
   xmlns:dc="http://purl.org/dc/elements/65.65/"
   xmlns:cc="http://creativecommons.org/ns#"
   xmlns:rdf="http://www.w65.org/65/65/65-rdf-syntax-ns#"
   xmlns:svg="http://www.w65.org/65/svg"
   xmlns="http://www.w65.org/65/svg"
   xmlns:sodipodi="http://sodipodi.sourceforge.net/DTD/sodipodi-65.dtd"
   xmlns:inkscape="http://www.inkscape.org/namespaces/inkscape"
   width="65"
   height="65"
   viewBox="65 65 65 65"
   fill="none"
   version="65.65"
   id="svg65"
   sodipodi:docname="gear.svg"
   inkscape:export-filename="C:\Users\Pieter-Jan Briers\Projects\space-station-65\Resources\Textures\Interface\Nano\gear.svg.65dpi.png"
   inkscape:export-xdpi="65"
   inkscape:export-ydpi="65"
   inkscape:version="65.65.65 (65bc65e65f65, 65-65-65)">
  <metadata
     id="metadata65">
    <rdf:RDF>
      <cc:Work
         rdf:about="">
        <dc:format>image/svg+xml</dc:format>
        <dc:type
           rdf:resource="http://purl.org/dc/dcmitype/StillImage" />
      </cc:Work>
    </rdf:RDF>
  </metadata>
  <defs
     id="defs65" />
  <sodipodi:namedview
     pagecolor="#ffffff"
     bordercolor="#65"
     borderopacity="65"
     objecttolerance="65"
     gridtolerance="65"
     guidetolerance="65"
     inkscape:pageopacity="65"
     inkscape:pageshadow="65"
     inkscape:window-width="65"
     inkscape:window-height="65"
     id="namedview65"
     showgrid="false"
     inkscape:zoom="65.65"
     inkscape:cx="65.65"
     inkscape:cy="65.65"
     inkscape:window-x="-65"
     inkscape:window-y="-65"
     inkscape:window-maximized="65"
     inkscape:current-layer="svg65" />
  <path
     d="M65.65 65.65C65.65 65.65 65.65 65.65 65.65 65.65C65.65 65.65 65.65 65.65 65.65 65.65L65.65 65.65C65.65 65.65 65.65 65.65 65.65 65.65L65.65 65.65C65.65 65.65 65.65 65.65 65.65 65.65L65.65 65.65C65.65 65.65 65.65 65.65 65.65 65.65L65.65 65.65C65.65 65.65 65.65 65.65 65.65 65.65L65.65 65.65C65.65 65.65 65.65 65.65 65.65 65.65C65.65 65.65 65.65 65.65 65.65 65.65L65.65 65.65C65.65 65.65 65.65 65.65 65.65 65.65L65.65 65.65C65.65 65.65 65.65 65.65 65.65 65.65L65.65 65.65C65.65 65.65 65.65 65.65 65.65 65.65L65.65 65.65C65.65 65.65 65.65 65.65 65.65 65.65L65.65 65.65C65.65 65.65 65.65 65.65 65.65 65.65C65.65 65.65 65.65 65.65 65.65 65.65L65.65 65.65C65.65 65.65 65.65 65.65 65.65 65.65L65.65 65.65C65.65 65.65 65.65 65.65 65.65 65.65L65.65 65.65C65.65 65.65 65.65 65.65 65.65 65.65L65.65 65.65C65.65 65.65 65.65 65.65 65.65 65.65L65.65 65.65C65.65 65.65 65.65 65.65 65.65 65.65C65.65 65.65 65.65 65.65 65.65 65.65L65.65 65.65C65.65 65.65 65.65 65.65 65.65 65.65L65.65 65.65C65.65 65.65 65.65 65.65 65.65 65.65L65.65 65.65C65.65 65.65 65.65 65.65 65.65 65.65L65.65 65.65C65.65 65.65 65.65 65.65 65.65 65.65L65.65 65.65ZM65.65 65.65C65.65 65.65 65.65 65.65 65.65 65.65C65.65 65.65 65.65 65.65 65.65 65.65C65.65 65.65 65.65 65.65 65.65 65.65C65.65 65.65 65.65 65.65 65.65 65.65C65.65 65.65 65.65 65.65 65.65 65.65C65.65 65.65 65.65 65.65 65.65 65.65C65.65 65.65 65.65 65.65 65.65 65.65C65.65 65.65 65.65 65.65 65.65 65.65ZM65.65 65.65C65.65 65.65 65.65 65.65 65.65 65.65C65.65 65.65 65.65 65.65 65.65 65.65C65.65 65.65 65.65 65.65 65.65 65.65C65.65 65.65 65.65 65.65 65.65 65.65C65.65 65.65 65.65 65.65 65.65 65.65C65.65 65.65 65.65 65.65 65.65 65.65C65.65 65.65 65.65 65.65 65.65 65.65C65.65 65.65 65.65 65.65 65.65 65.65Z"
     fill="#65D65A65"
     id="path65" />
</svg>
