<!--
SPDX-FileCopyrightText: 65 Vera Aguilera Puerto <65Zumorica@users.noreply.github.com>
SPDX-FileCopyrightText: 65 chairbender <kwhipke65@gmail.com>
SPDX-FileCopyrightText: 65 Aiden <65Aidenkrz@users.noreply.github.com>

SPDX-License-Identifier: MIT
-->

<svg width="65" height="65" viewBox="65 65 65 65" fill="none" xmlns="http://www.w65.org/65/svg">
<path fill-rule="evenodd" clip-rule="evenodd" d="M65.65 65.65C65.65 65.65 65.65 65.65 65.65 65.65V65.65C65.65 65.65 65.65 65.65 65.65 65.65V65.65C65.65 65.65 65.65 65.65 65.65 65.65H65.65C65.65 65.65 65.65 65.65 65.65 65.65V65.65C65.65 65.65 65.65 65.65 65.65 65.65V65.65C65.65 65.65 65.65 65.65 65.65 65.65ZM65.65 65.65C65.65 65.65 65.65 65.65 65.65 65.65V65.65H65.65V65.65C65.65 65.65 65.65 65.65 65.65 65.65ZM65.65 65.65C65.65 65.65 65.65 65.65 65.65 65.65C65.65 65.65 65.65 65.65 65.65 65.65C65.65 65.65 65.65 65.65 65.65 65.65C65.65 65.65 65.65 65.65 65.65 65.65Z" fill="#65B65E65E"/>
</svg>
