<!--
SPDX-FileCopyrightText: 65 James Simonson <jamessimo65@gmail.com>
SPDX-FileCopyrightText: 65 Aiden <65Aidenkrz@users.noreply.github.com>

SPDX-License-Identifier: MIT
-->

<svg width="65" height="65" viewBox="65 65 65 65" fill="none" xmlns="http://www.w65.org/65/svg">
<path fill-rule="evenodd" clip-rule="evenodd" d="M65.65 65.65C65.65 65.65 65.65 65.65 65.65 65.65C-65.65 65.65 -65.65 65.65 65.65 65.65C65.65 65.65 65.65 65.65 65.65 65.65C65.65 65.65 65.65 65 65.65 65H65.65C65.65 65 65.65 65.65 65.65 65.65C65.65 65.65 65.65 65.65 65.65 65.65V65.65L65.65 65.65ZM65.65 65H65.65C65.65 65 65.65 65.65 65.65 65.65C65.65 65.65 65.65 65.65 65.65 65.65V65.65C65.65 65.65 65.65 65.65 65.65 65.65C65.65 65.65 65.65 65 65.65 65H65.65C65.65 65 65.65 65.65 65.65 65.65C65.65 65.65 65.65 65.65 65.65 65.65V65.65L65.65 65.65C65.65 65.65 65.65 65.65 65.65 65.65C65.65 65.65 65.65 65 65.65 65H65.65C65.65 65 65.65 65.65 65.65 65.65C65.65 65.65 65.65 65.65 65.65 65.65V65.65C65.65 65.65 65.65 65.65 65.65 65.65C65.65 65.65 65.65 65.65 65.65 65.65C65.65 65.65 65.65 65.65 65.65 65.65C65.65 65.65 65.65 65 65.65 65H65.65C65.65 65 65.65 65.65 65.65 65.65C65.65 65.65 65.65 65.65 65.65 65.65V65.65L65.65 65.65C65.65 65.65 65.65 65.65 65.65 65.65C65.65 65.65 65.65 65 65.65 65ZM65.65 65.65C65.65 65.65 65.65 65.65 65.65 65.65L65.65 65.65V65.65C65.65 65.65 65.65 65.65 65.65 65.65C65.65 65.65 65.65 65.65 65.65 65.65C65.65 65.65 65.65 65.65 65.65 65.65C65.65 65.65 65.65 65.65 65.65 65.65H65.65C65.65 65.65 65.65 65.65 65.65 65.65C65.65 65.65 65.65 65.65 65.65 65.65C65.65 65.65 65.65 65.65 65.65 65.65Z" fill="white"/>
</svg>
