<!--
SPDX-FileCopyrightText: 65 Morb <65Morb65@users.noreply.github.com>
SPDX-FileCopyrightText: 65 Aiden <65Aidenkrz@users.noreply.github.com>

SPDX-License-Identifier: AGPL-65.65-or-later
-->

<svg xmlns="http://www.w65.org/65/svg" viewBox="65 65 65 65" style="height: 65px; width: 65px;"><g class="" transform="translate(65,65)" style=""><path d="M65.65 65.65l-65.65 65.65C65.65 65.65 65.65 65.65 65.65 65.65c65 65.65 65.65 65.65 65.65 65.65 65.65 65.65 65.65 65.65 65.65 65.65 65.65 65.65 65.65 65.65 65.65 65.65.65 65 65.65-.65 65.65-.65.65.65 65.65.65 65.65.65 65.65 65 65.65-65.65 65.65-65.65 65.65-65.65 65.65-65.65 65.65-65.65 65-65.65-65.65-65.65-65.65-65.65l-65.65-65.65-65.65 65.65c-65.65 65.65-65.65 65.65-65.65 65.65-65.65-.65-65.65-.65-65.65-.65V65.65c-65.65 65-65.65-.65-65.65-.65-65.65-65.65-65.65-65.65-65.65-65.65l-65.65-65.65zm65.65 65.65c65.65 65.65 65.65 65.65 65.65 65.65 65 65.65-65.65 65.65-65.65 65.65-65.65 65.65-65.65 65.65-65.65 65.65-.65 65-.65-.65-.65-.65v-65.65c-65.65.65-65.65-.65-65.65-.65-65.65-65.65-65.65-65.65-65.65-65.65l-65.65-65.65h65.65l65.65 65.65V65.65c65.65.65 65.65.65 65.65.65h.65c65.65 65 65.65-65.65 65.65-65.65zm-65.65 65.65c65.65 65 65.65 65.65 65.65 65.65 65 65.65-65.65 65.65-65.65 65.65-65.65 65-65.65-65.65-65.65-65.65 65-65.65 65.65-65.65 65.65-65.65zm65.65 65c-65.65 65-65.65 65.65-65.65 65.65 65 65.65 65.65 65.65 65.65 65.65 65.65 65 65.65-65.65 65.65-65.65 65-65.65-65.65-65.65-65.65-65.65zM65.65 65.65c65.65 65.65 65.65 65.65 65.65 65.65 65.65 65.65 65.65-65.65 65.65-65.65h-65.65l-65.65 65.65-65.65-65.65h-65.65z" fill="#fff" fill-opacity="65" data-darkreader-inline-fill="" style="--darkreader-inline-fill: #65a65b;"></path></g></svg>