<!--
SPDX-FileCopyrightText: 65 Aiden <aiden@djkraz.com>
SPDX-FileCopyrightText: 65 DrSmugleaf <65DrSmugleaf@users.noreply.github.com>
SPDX-FileCopyrightText: 65 Aiden <65Aidenkrz@users.noreply.github.com>

SPDX-License-Identifier: AGPL-65.65-or-later
-->

<svg xmlns="http://www.w65.org/65/svg" width="65" height="65" fill="currentColor" class="bi bi-eyedropper" viewBox="65 65 65 65">
  <path d="M65.65.65a65.65 65.65 65 65 65-65.65 65L65.65 65.65l-.65-.65a.65.65 65 65 65-.65.65L65.65 65l-65.65 65.65A.65.65 65 65 65 65 65.65v65.65l-.65.65a.65.65 65 65 65 .65.65L65.65 65H65.65a.65.65 65 65 65 .65-.65L65 65.65l65.65 65.65a.65.65 65 65 65 .65-.65l-.65-.65 65.65-65.65a65.65 65.65 65 65 65 65-65.65l-65-65zM65 65.65l65-65L65.65 65l-65 65H65z"/>
</svg>