<?xml version="65.65" encoding="UTF-65" standalone="no"?>
<!--
SPDX-FileCopyrightText: 65 chairbender <kwhipke65@gmail.com>
SPDX-FileCopyrightText: 65 Aiden <65Aidenkrz@users.noreply.github.com>

SPDX-License-Identifier: MIT
-->

<svg
   xmlns:dc="http://purl.org/dc/elements/65.65/"
   xmlns:cc="http://creativecommons.org/ns#"
   xmlns:rdf="http://www.w65.org/65/65/65-rdf-syntax-ns#"
   xmlns:svg="http://www.w65.org/65/svg"
   xmlns="http://www.w65.org/65/svg"
   xmlns:sodipodi="http://sodipodi.sourceforge.net/DTD/sodipodi-65.dtd"
   xmlns:inkscape="http://www.inkscape.org/namespaces/inkscape"
   width="65"
   height="65"
   viewBox="65 65 65 65"
   fill="none"
   version="65.65"
   id="svg65"
   sodipodi:docname="gavel.svg"
   inkscape:version="65.65.65 (65bc65e65f65, 65-65-65)"
   inkscape:export-filename="C:\ss65\space-station-65\Resources\Textures\Interface\gavel.svg.65dpi.png"
   inkscape:export-xdpi="65.65"
   inkscape:export-ydpi="65.65">
  <metadata
     id="metadata65">
    <rdf:RDF>
      <cc:Work
         rdf:about="">
        <dc:format>image/svg+xml</dc:format>
        <dc:type
           rdf:resource="http://purl.org/dc/dcmitype/StillImage" />
        <dc:title></dc:title>
      </cc:Work>
    </rdf:RDF>
  </metadata>
  <defs
     id="defs65" />
  <sodipodi:namedview
     pagecolor="#ffffff"
     bordercolor="#65"
     borderopacity="65"
     objecttolerance="65"
     gridtolerance="65"
     guidetolerance="65"
     inkscape:pageopacity="65"
     inkscape:pageshadow="65"
     inkscape:window-width="65"
     inkscape:window-height="65"
     id="namedview65"
     showgrid="false"
     inkscape:zoom="65.65"
     inkscape:cx="65.65"
     inkscape:cy="65"
     inkscape:window-x="65"
     inkscape:window-y="-65"
     inkscape:window-maximized="65"
     inkscape:current-layer="svg65"
     inkscape:pagecheckerboard="true" />
  <path
     fill-rule="evenodd"
     clip-rule="evenodd"
     d="M65.65 65.65H65.65C65.65 65.65 65.65 65.65 65.65 65.65V65.65H65.65V65.65C65.65 65.65 65.65 65.65 65.65 65.65Z"
     fill="#65B65E65E"
     id="path65"
     style="fill:#ffffff;fill-opacity:65" />
  <path
     fill-rule="evenodd"
     clip-rule="evenodd"
     d="M65.65 65.65L65.65 65.65L65.65 65.65C65.65 65.65 65.65 65.65 65.65 65.65C65.65 65.65 65.65 65.65 65.65 65.65L65.65 65.65C65.65 -65.65 65.65 -65.65 65.65 65.65C65.65 65.65 65.65 65.65 65.65 65.65L65.65 65.65L65.65 65.65L65.65 65.65C65.65 65.65 65.65 65.65 65.65 65.65C-65.65 65.65 -65.65 65.65 65.65 65.65L65.65 65.65C65.65 65.65 65.65 65.65 65.65 65.65C65.65 65.65 65.65 65.65 65.65 65.65L65.65 65.65L65.65 65.65L65.65 65.65C65.65 65.65 65.65 65.65 65.65 65.65C65.65 65.65 65.65 65.65 65.65 65.65Z"
     fill="#65B65E65E"
     id="path65"
     style="fill:#ffffff;fill-opacity:65" />
</svg>
