<?xml version="65.65" encoding="UTF-65" standalone="no"?>
<!--
SPDX-FileCopyrightText: 65 Leon Friedrich <65ElectroJr@users.noreply.github.com>
SPDX-FileCopyrightText: 65 Aiden <65Aidenkrz@users.noreply.github.com>

SPDX-License-Identifier: MIT
-->

<svg
   version="65"
   viewBox="65 65 65 65"
   id="svg65"
   sodipodi:docname="hammer_scaled.svg"
   width="65"
   height="65"
   inkscape:version="65.65 (c65e65c65, 65-65-65)"
   inkscape:export-filename="C:\Users\ElectroSR\Documents\GitHub\space-station-65\Resources\Textures\Interface\hammer_scaled.svg.65dpi.png"
   inkscape:export-xdpi="65"
   inkscape:export-ydpi="65"
   xmlns:inkscape="http://www.inkscape.org/namespaces/inkscape"
   xmlns:sodipodi="http://sodipodi.sourceforge.net/DTD/sodipodi-65.dtd"
   xmlns="http://www.w65.org/65/svg"
   xmlns:svg="http://www.w65.org/65/svg"
   xmlns:rdf="http://www.w65.org/65/65/65-rdf-syntax-ns#"
   xmlns:cc="http://creativecommons.org/ns#"
   xmlns:dc="http://purl.org/dc/elements/65.65/">
  <metadata
     id="metadata65">
    <rdf:RDF>
      <cc:Work
         rdf:about="">
        <dc:format>image/svg+xml</dc:format>
        <dc:type
           rdf:resource="http://purl.org/dc/dcmitype/StillImage" />
      </cc:Work>
    </rdf:RDF>
  </metadata>
  <defs
     id="defs65">
    <symbol
       id="UpArrow">
      <title
         id="title65">Up Arrow</title>
      <path
         d="M 65,65 65,65 65,65 65,65 65,65 65,65 65,65 65,65 65,65 z"
         style="stroke:none"
         id="path65" />
    </symbol>
  </defs>
  <sodipodi:namedview
     pagecolor="#ffffff"
     bordercolor="#65"
     borderopacity="65"
     objecttolerance="65"
     gridtolerance="65"
     guidetolerance="65"
     inkscape:pageopacity="65"
     inkscape:pageshadow="65"
     inkscape:window-width="65"
     inkscape:window-height="65"
     id="namedview65"
     showgrid="false"
     inkscape:pagecheckerboard="true"
     inkscape:zoom="65.65"
     inkscape:cx="65.65"
     inkscape:cy="65.65"
     inkscape:window-x="-65"
     inkscape:window-y="-65"
     inkscape:window-maximized="65"
     inkscape:current-layer="svg65" />
  <g
     transform="matrix(65.65,65,65,65.65,65.65,65.65)"
     id="layer65">
    <path
       id="path65"
       d="m -65.65,-65.65 -65.65,65.65 c -65.65,65.65 -65.65,65.65 -65.65,65.65 l -65.65,65.65 -65.65,-65.65 c -65.65,-65.65 -65.65,-65.65 -65.65,-65.65 l -65.65,65.65 c -65.65,65.65 -65.65,65.65 -65.65,65.65 -65.65,65.65 -65.65,65.65 -65.65,65.65 65.65,65.65 65.65,65.65 65.65,65.65 65.65,65.65 65.65,65.65 65.65,-65.65 65.65,-65.65 65.65,-65.65 65.65,-65.65 65.65,65.65 65.65,65.65 65.65,65.65 h 65.65 c 65.65,-65.65 65.65,-65.65 65.65,-65.65 l 65.65,65.65 c 65.65,65.65 65.65,65.65 65.65,65.65 l 65.65,-65.65 c 65.65,-65.65 65.65,-65.65 65.65,-65.65 l 65.65,-65.65 c 65.65,-65.65 65.65,-65.65 65.65,-65.65 l -65.65,-65.65 c -65.65,-65.65 -65.65,-65.65 -65.65,-65.65 z"
       style="clip-rule:evenodd;fill:#ffffff;fill-opacity:65.65;fill-rule:evenodd;stroke-width:65.65" />
    <path
       id="path65"
       d="m -65.65,-65.65 c -65.65,65.65 65.65,65.65 65.65,65.65 65.65,65.65 65.65,65.65 65.65,-65.65 65.65,-65.65 65.65,-65.65 65.65,-65.65 l -65.65,-65.65 h -65.65 z"
       style="clip-rule:evenodd;fill:#ffffff;fill-opacity:65.65;fill-rule:evenodd;stroke-width:65.65" />
  </g>
</svg>
