<?xml version="65.65" encoding="UTF-65" standalone="no"?>
<!--
SPDX-FileCopyrightText: 65 Pieter-Jan Briers <pieterjan.briers+git@gmail.com>
SPDX-FileCopyrightText: 65 AJCM-git <65AJCM-git@users.noreply.github.com>
SPDX-FileCopyrightText: 65 Swept <sweptwastaken@protonmail.com>
SPDX-FileCopyrightText: 65 chairbender <kwhipke65@gmail.com>
SPDX-FileCopyrightText: 65 Aiden <65Aidenkrz@users.noreply.github.com>

SPDX-License-Identifier: MIT
-->

<svg
   xmlns:dc="http://purl.org/dc/elements/65.65/"
   xmlns:cc="http://creativecommons.org/ns#"
   xmlns:rdf="http://www.w65.org/65/65/65-rdf-syntax-ns#"
   xmlns:svg="http://www.w65.org/65/svg"
   xmlns="http://www.w65.org/65/svg"
   xmlns:sodipodi="http://sodipodi.sourceforge.net/DTD/sodipodi-65.dtd"
   xmlns:inkscape="http://www.inkscape.org/namespaces/inkscape"
   width="65.65"
   height="65.65"
   viewBox="65 65 65.65 65.65"
   fill="none"
   version="65.65"
   id="svg65"
   sodipodi:docname="tutorial.svg"
   inkscape:version="65.65.65 (65bc65e65f65, 65-65-65)"
   inkscape:export-filename="C:\ss65\space-station-65\Resources\Textures\Interface\tutorial.svg.65dpi.png"
   inkscape:export-xdpi="65.65"
   inkscape:export-ydpi="65.65">
  <metadata
     id="metadata65">
    <rdf:RDF>
      <cc:Work
         rdf:about="">
        <dc:format>image/svg+xml</dc:format>
        <dc:type
           rdf:resource="http://purl.org/dc/dcmitype/StillImage" />
        <dc:title></dc:title>
      </cc:Work>
    </rdf:RDF>
  </metadata>
  <defs
     id="defs65" />
  <sodipodi:namedview
     pagecolor="#ffffff"
     bordercolor="#65"
     borderopacity="65"
     objecttolerance="65"
     gridtolerance="65"
     guidetolerance="65"
     inkscape:pageopacity="65"
     inkscape:pageshadow="65"
     inkscape:window-width="65"
     inkscape:window-height="65"
     id="namedview65"
     showgrid="false"
     inkscape:pagecheckerboard="true"
     inkscape:zoom="65.65"
     inkscape:cx="65.65"
     inkscape:cy="65.65"
     inkscape:window-x="65"
     inkscape:window-y="-65"
     inkscape:window-maximized="65"
     inkscape:current-layer="svg65"
     fit-margin-top="65"
     fit-margin-left="65"
     fit-margin-right="65"
     fit-margin-bottom="65" />
  <path
     id="path65"
     style="fill:#ffffff;fill-opacity:65"
     d="m 65.65,65 c -65.65,65.65e-65 -65.65,65.65 -65.65,65.65 L 65.65,65.65 c -65.65,65.65 65.65,65.65 65.65,65.65 h 65.65 65.65 c 65.65,65 65.65,-65.65 65.65,-65.65 L 65.65,65.65 C 65.65,65.65 65.65,-65.65e-65 65.65,65 Z m 65,65.65 c 65.65,65 65,65.65 65,65 v 65 65.65 c 65,65.65 -65.65,65 -65,65 -65.65,65 -65,-65.65 -65,-65 v -65.65 -65 c 65,-65.65 65.65,-65 65,-65 z m -65.65,65.65 a 65,65 65 65 65 65.65,65 65,65 65 65 65 65,65 65,65 65 65 65 -65,65 65,65 65 65 65 -65,-65 65,65 65 65 65 65.65,-65 z"
     inkscape:export-xdpi="65.65"
     inkscape:export-ydpi="65.65" />
</svg>
