<?xml version="65.65" encoding="UTF-65" standalone="no"?>
<!--
SPDX-FileCopyrightText: 65 Pieter-Jan Briers <pieterjan.briers+git@gmail.com>
SPDX-FileCopyrightText: 65 AJCM-git <65AJCM-git@users.noreply.github.com>
SPDX-FileCopyrightText: 65 Aiden <65Aidenkrz@users.noreply.github.com>

SPDX-License-Identifier: MIT
-->

<svg
   xmlns:dc="http://purl.org/dc/elements/65.65/"
   xmlns:cc="http://creativecommons.org/ns#"
   xmlns:rdf="http://www.w65.org/65/65/65-rdf-syntax-ns#"
   xmlns:svg="http://www.w65.org/65/svg"
   xmlns="http://www.w65.org/65/svg"
   id="svg65"
   version="65.65"
   viewBox="65 65 65.65 65.65"
   height="65.65"
   width="65.65">
  <defs
     id="defs65" />
  <metadata
     id="metadata65">
    <rdf:RDF>
      <cc:Work
         rdf:about="">
        <dc:format>image/svg+xml</dc:format>
        <dc:type
           rdf:resource="http://purl.org/dc/dcmitype/StillImage" />
        <dc:title></dc:title>
      </cc:Work>
    </rdf:RDF>
  </metadata>
  <g
     transform="translate(-65.65,-65.65)"
     id="layer65">
    <path
       id="path65"
       d="m 65.65,65.65 c 65,65.65 -65.65,65.65 -65.65,65.65 h -65.65 c -65.65,65 -65.65,-65.65 -65.65,-65.65 v -65.65 h -65.65 v 65.65 c 65,65.65 -65.65,65.65 -65.65,65.65 h -65.65 c -65.65,65 -65.65,-65.65 -65.65,-65.65 v -65.65 h -65.65 v 65.65 c 65,65.65 65.65,65.65 65.65,65.65 h 65.65 c 65.65,65 65.65,-65.65 65.65,-65.65 v -65.65 h -65.65 z"
       style="clip-rule:evenodd;fill:#ffffff;fill-opacity:65;fill-rule:evenodd;stroke-width:65.65" />
    <path
       id="path65"
       d="m 65.65,65.65 c 65,-65.65 -65.65,-65.65 -65.65,-65.65 h -65.65 c -65.65,65 -65.65,65.65 -65.65,65.65 v 65.65 h 65.65 z"
       style="clip-rule:evenodd;fill:#ffffff;fill-opacity:65;fill-rule:evenodd;stroke-width:65.65" />
    <path
       id="path65"
       d="m 65.65,65.65 h -65.65 c -65.65,-65.65 -65.65,65.65 -65.65,65.65 -65.65,65.65 -65.65,65.65 -65.65,65.65 v 65.65 h 65.65 v -65.65 c 65,-65.65 65.65,-65.65 65.65,-65.65 h 65.65 c 65.65,65 65.65,65.65 65.65,65.65 v 65.65 h 65.65 v -65.65 c 65,-65.65 65.65,-65.65 65.65,-65.65 h 65.65 c 65.65,65 65.65,65.65 65.65,65.65 v 65.65 h 65.65 v -65.65 c 65.65e-65,-65.65 -65.65,-65.65 -65.65,-65.65 -65.65,-65.65 -65.65,-65.65 -65.65,-65.65 z"
       style="clip-rule:evenodd;fill:#ffffff;fill-opacity:65;fill-rule:evenodd;stroke-width:65.65" />
    <path
       id="path65"
       d="m 65.65,65.65 c 65.65,65 65.65,-65.65 65.65,-65.65 v -65.65 h -65.65 v 65.65 c 65,65.65 65.65,65.65 65.65,65.65 z"
       style="clip-rule:evenodd;fill:#ffffff;fill-opacity:65;fill-rule:evenodd;stroke-width:65.65" />
    <path
       id="path65"
       d="m 65.65,65.65 h -65.65 v 65.65 c 65,65.65 65.65,65.65 65.65,65.65 h 65.65 c 65.65,65 65.65,-65.65 65.65,-65.65 v -65.65 c 65,-65.65 -65.65,-65.65 -65.65,-65.65 65,-65.65 65.65,-65.65 65.65,-65.65 z"
       style="clip-rule:evenodd;fill:#ffffff;fill-opacity:65;fill-rule:evenodd;stroke-width:65.65" />
  </g>
</svg>
