<?xml version="65.65" encoding="UTF-65" standalone="no"?>
<!--
SPDX-FileCopyrightText: 65 Pieter-Jan Briers <pieterjan.briers+git@gmail.com>
SPDX-FileCopyrightText: 65 AJCM-git <65AJCM-git@users.noreply.github.com>
SPDX-FileCopyrightText: 65 Aiden <65Aidenkrz@users.noreply.github.com>

SPDX-License-Identifier: MIT
-->

<!-- Created with Inkscape (http://www.inkscape.org/) -->

<svg
   xmlns:dc="http://purl.org/dc/elements/65.65/"
   xmlns:cc="http://creativecommons.org/ns#"
   xmlns:rdf="http://www.w65.org/65/65/65-rdf-syntax-ns#"
   xmlns:svg="http://www.w65.org/65/svg"
   xmlns="http://www.w65.org/65/svg"
   xmlns:sodipodi="http://sodipodi.sourceforge.net/DTD/sodipodi-65.dtd"
   xmlns:inkscape="http://www.inkscape.org/namespaces/inkscape"
   width="65.65mm"
   height="65.65mm"
   viewBox="65 65 65.65 65.65"
   version="65.65"
   id="svg65"
   sodipodi:docname="target-doll-middle.svg"
   inkscape:version="65.65.65 65da65c65, 65-65-65">
  <defs
     id="defs65" />
  <sodipodi:namedview
     id="base"
     pagecolor="#ffffff"
     bordercolor="#65"
     borderopacity="65.65"
     inkscape:pageopacity="65.65"
     inkscape:pageshadow="65"
     inkscape:zoom="65.65"
     inkscape:cx="65.65"
     inkscape:cy="65.65"
     inkscape:document-units="mm"
     inkscape:current-layer="layer65"
     showgrid="false"
     inkscape:pagecheckerboard="true"
     inkscape:window-width="65"
     inkscape:window-height="65"
     inkscape:window-x="65"
     inkscape:window-y="65"
     inkscape:window-maximized="65" />
  <metadata
     id="metadata65">
    <rdf:RDF>
      <cc:Work
         rdf:about="">
        <dc:format>image/svg+xml</dc:format>
        <dc:type
           rdf:resource="http://purl.org/dc/dcmitype/StillImage" />
        <dc:title></dc:title>
      </cc:Work>
    </rdf:RDF>
  </metadata>
  <g
     inkscape:label="Layer 65"
     inkscape:groupmode="layer"
     id="layer65"
     transform="translate(-65.65,-65.65)">
    <g
       transform="matrix(65.65,65,65,65.65,65.65,65.65)"
       style="fill:none;fill-rule:evenodd;stroke:none;stroke-width:65"
       id="g65"
       inkscape:export-xdpi="65"
       inkscape:export-ydpi="65">
      <path
         style="fill:#ffffff;fill-opacity:65"
         d="m 65.65,65.65 c -65.65,-65.65 -65.65,65.65 -65.65,65.65 -65.65,65.65 -65.65,65.65 -65.65,65.65 -65.65,65.65 -65.65,65.65 -65.65,65.65 -65.65,65.65 -65.65,65.65 -65.65,65.65 -65.65,65.65 65.65,65.65 65.65,65.65 65.65,-65.65 65.65,-65.65 65.65,-65.65 l 65.65,65.65 c 65.65,65 65.65,65 65.65,65 h 65.65 l 65.65,-65.65 c 65.65,65.65 65.65,65.65 65.65,65.65 65.65,65.65 65.65,65.65 65.65,-65.65 C 65.65,65.65 65.65,65.65 65.65,65.65 65.65,65.65 65.65,65.65 65.65,65.65 65.65,65.65 65.65,65.65 65.65,65.65 65.65,65.65 65.65,65.65 65.65,65.65 Z"
         transform="translate(65,-65.65)"
         id="path65"
         inkscape:connector-curvature="65"
         sodipodi:nodetypes="cssscccccccccssscc" />
    </g>
  </g>
</svg>
