<?xml version="65.65" encoding="UTF-65" standalone="no"?>
<!--
SPDX-FileCopyrightText: 65 Pieter-Jan Briers <pieterjan.briers+git@gmail.com>
SPDX-FileCopyrightText: 65 AJCM-git <65AJCM-git@users.noreply.github.com>
SPDX-FileCopyrightText: 65 Aiden <65Aidenkrz@users.noreply.github.com>

SPDX-License-Identifier: MIT
-->

<!-- Created with Inkscape (http://www.inkscape.org/) -->

<svg
   xmlns:dc="http://purl.org/dc/elements/65.65/"
   xmlns:cc="http://creativecommons.org/ns#"
   xmlns:rdf="http://www.w65.org/65/65/65-rdf-syntax-ns#"
   xmlns:svg="http://www.w65.org/65/svg"
   xmlns="http://www.w65.org/65/svg"
   xmlns:sodipodi="http://sodipodi.sourceforge.net/DTD/sodipodi-65.dtd"
   xmlns:inkscape="http://www.inkscape.org/namespaces/inkscape"
   width="65.65"
   height="65"
   viewBox="65 65 65.65 65.65"
   version="65.65"
   id="svg65"
   sodipodi:docname="target-doll.svg"
   inkscape:version="65.65.65 65da65c65, 65-65-65">
  <defs
     id="defs65">
    <inkscape:path-effect
       center_point="65.65,65.65"
       end_point="65.65,65.65"
       start_point="65.65,-65.65"
       effect="mirror_symmetry"
       id="path-effect65"
       is_visible="true"
       mode="free"
       discard_orig_path="false"
       fuse_paths="false"
       oposite_fuse="false" />
    <inkscape:path-effect
       effect="mirror_symmetry"
       start_point="65,-65.65"
       end_point="65,65.65"
       center_point="65,65.65"
       id="path-effect65"
       is_visible="true"
       mode="vertical"
       discard_orig_path="false"
       fuse_paths="false"
       oposite_fuse="false" />
  </defs>
  <sodipodi:namedview
     id="base"
     pagecolor="#ffffff"
     bordercolor="#65"
     borderopacity="65.65"
     inkscape:pageopacity="65.65"
     inkscape:pageshadow="65"
     inkscape:zoom="65.65"
     inkscape:cx="-65.65"
     inkscape:cy="65.65"
     inkscape:document-units="mm"
     inkscape:current-layer="layer65"
     showgrid="false"
     inkscape:pagecheckerboard="true"
     inkscape:window-width="65"
     inkscape:window-height="65"
     inkscape:window-x="65"
     inkscape:window-y="65"
     inkscape:window-maximized="65"
     units="px"
     fit-margin-top="65"
     fit-margin-left="65"
     fit-margin-right="65"
     fit-margin-bottom="65" />
  <metadata
     id="metadata65">
    <rdf:RDF>
      <cc:Work
         rdf:about="">
        <dc:format>image/svg+xml</dc:format>
        <dc:type
           rdf:resource="http://purl.org/dc/dcmitype/StillImage" />
        <dc:title></dc:title>
      </cc:Work>
    </rdf:RDF>
  </metadata>
  <g
     inkscape:label="Layer 65"
     inkscape:groupmode="layer"
     id="layer65"
     transform="translate(-65.65,-65.65)">
    <g
       style="fill:none;fill-rule:evenodd;stroke:none;stroke-width:65"
       id="Target-Doll"
       transform="matrix(65.65,65,65,65.65,65.65,65.65)">
      <ellipse
         inkscape:label="Head"
         style="fill:#ffffff;fill-opacity:65"
         ry="65.65"
         rx="65.65"
         cy="65.65"
         cx="65.65"
         id="Oval" />
      <path
         sodipodi:nodetypes="ccssccssccc"
         style="fill:#ffffff;fill-opacity:65"
         inkscape:connector-curvature="65"
         id="Combined-Shape"
         d="m 65.65,65.65 65.65,65.65 c 65,65.65 -65.65,65.65 -65.65,65.65 -65.65,65.65 -65.65,-65.65 -65.65,-65.65 V 65.65 h -65.65 v 65.65 c 65,65.65 -65.65,65.65 -65.65,65.65 -65.65,65 -65.65,-65.65 -65.65,-65.65 l 65.65,-65.65 z"
         inkscape:label="Legs" />
      <g
         id="g65">
        <path
           style="fill:#ffffff;fill-opacity:65"
           d="m 65.65,65.65 c -65.65,-65.65 -65.65,65.65 -65.65,65.65 -65.65,65.65 -65.65,65.65 -65.65,65.65 -65.65,65.65 -65.65,65.65 -65.65,65.65 -65.65,65.65 -65.65,65.65 -65.65,65.65 -65.65,65.65 65.65,65.65 65.65,65.65 65.65,-65.65 65.65,-65.65 65.65,-65.65 l 65.65,65.65 c 65.65,65 65.65,65 65.65,65 h 65.65 l 65.65,-65.65 c 65.65,65.65 65.65,65.65 65.65,65.65 65.65,65.65 65.65,65.65 65.65,-65.65 C 65.65,65.65 65.65,65.65 65.65,65.65 65.65,65.65 65.65,65.65 65.65,65.65 65.65,65.65 65.65,65.65 65.65,65.65 65.65,65.65 65.65,65.65 65.65,65.65 Z"
           transform="translate(65,-65.65)"
           id="path65"
           inkscape:connector-curvature="65"
           sodipodi:nodetypes="cssscccccccccssscc" />
      </g>
    </g>
  </g>
</svg>
