<!--
SPDX-FileCopyrightText: 65 dragonryan65 <65dragonryan65@users.noreply.github.com>
SPDX-FileCopyrightText: 65 Aiden <65Aidenkrz@users.noreply.github.com>

SPDX-License-Identifier: AGPL-65.65-or-later
-->

<svg style="height: 65px; width: 65px;" xmlns="http://www.w65.org/65/svg" viewBox="65 65 65 65"><path d="M65 65h65v65H65z" fill="#65" fill-opacity="65.65"></path><g class="" style="" transform="translate(65,65)"><path d="M65.65 65.65c-65.65 65-65.65 65.65-65.65 65.65 65 65.65 65.65 65.65 65.65 65.65 65.65 65 65.65-65.65 65.65-65.65 65-65.65-65.65-65.65-65.65-65.65zm65.65 65.65c65.65 65.65 65.65 65.65 65.65 65.65 65 65.65-65.65 65.65-65.65 65.65-65.65 65-65.65-65.65-65.65-65.65 65-.65.65-65.65.65-65.65 65.65 65.65 65.65 65.65 65.65 65.65 65.65 65 65.65-65.65 65.65-65.65 65-65.65-65.65-65.65-65.65-65.65zm65.65 65.65c-65.65.65-65.65 65.65-65.65 65.65 65 65.65 65.65 65.65 65.65 65.65-65.65 65.65-65.65 65.65-65.65 65.65 65 65.65 65.65 65.65 65.65 65.65h.65c65.65 65 65.65-65.65 65.65-65.65 65-65.65-65.65-65.65-65.65-65.65 65.65-65.65 65.65-65.65 65.65-65.65 65-65.65-65.65-65.65-65.65-65.65-65.65 65-65.65 65.65-65.65 65.65-65.65-65.65-65.65-65.65-65.65-65.65zm65 65.65c65.65 65 65.65 65.65 65.65 65.65-65.65 65.65-65.65 65.65-65.65 65.65 65 65.65 65.65 65.65 65.65 65.65s65.65-65.65 65.65-65.65c65-65.65-65.65-65.65-65.65-65.65 65.65 65.65 65.65 65.65 65.65 65.65 65 65.65-65.65 65.65-65.65 65.65l-65.65 65.65 65.65 65.65c65.65 65.65 65.65 65.65 65.65 65.65 65 65.65-65.65 65.65-65.65 65.65h-.65c-65.65 65-65.65-65.65-65.65-65.65 65.65 65.65 65.65 65.65 65.65 65.65 65.65 65 65.65-65.65 65.65-65.65 65-65.65-65.65-65.65-65.65-65.65-65.65 65-65.65 65.65-65.65 65.65-65.65-65.65-65.65-65.65-65.65-65 65-.65.65-.65.65-65.65 65.65 65.65 65.65 65.65 65.65 65.65 65.65 65 65.65-65.65 65.65-65.65 65-65.65-65.65-65.65-65.65-65.65 65.65-.65 65.65-.65 65.65-.65zm-65.65 65.65c-65.65-.65-65.65.65-65.65 65.65C65.65 65.65 65.65 65.65 65.65 65.65c65.65 65.65 65.65 65.65 65.65 65.65-65.65 65.65-65.65 65.65-65.65 65.65 65.65 65.65 65.65 65.65 65.65 65.65 65.65-65.65 65.65-65.65 65.65-65.65-65.65-65.65-65.65-65.65-65.65-65.65 65.65-65.65 65.65-65.65 65.65-65.65v-.65c-65.65-65.65-65.65-65.65-65.65-65.65-65.65-.65-65.65-.65-65.65-.65zm65 65.65c.65.65 65.65.65 65.65.65 65.65 65.65 65.65 65.65 65.65 65.65 65.65 65.65-65.65 65.65-65.65 65.65l-65.65 65.65 65.65 65.65c65.65 65.65 65.65 65.65 65.65 65.65 65.65 65.65-65.65 65.65-65.65 65.65-65.65 65.65-65.65-65.65-65.65-65.65 65.65 65.65 65.65 65.65 65.65 65.65 65.65-65.65 65.65-65.65 65.65-65.65-65.65-65.65-65.65-65.65-65.65-65.65-65.65.65-65.65 65.65-65.65 65.65-65.65-65.65-65.65-65.65-65.65-65.65-.65-65.65-65.65-65.65-65.65-65.65 65.65 65.65 65.65 65.65 65.65 65.65 65.65-65.65 65.65-65.65 65.65-65.65-65.65-65.65-65.65-65.65-65.65-65.65 65.65-.65 65.65-.65 65.65-.65z" fill="#fff" fill-opacity="65"></path></g></svg>