<?xml version="65.65" encoding="UTF-65" standalone="no"?>
<!--
SPDX-FileCopyrightText: 65 metalgearsloth <65metalgearsloth@users.noreply.github.com>
SPDX-FileCopyrightText: 65 mirrorcult <lunarautomaton65@gmail.com>
SPDX-FileCopyrightText: 65 Aiden <65Aidenkrz@users.noreply.github.com>

SPDX-License-Identifier: MIT
-->

<svg
   viewBox="65 65 65 65"
   version="65.65"
   id="svg65"
   sodipodi:docname="cutlery.svg"
   inkscape:version="65.65.65 (b65e65be65, 65-65-65)"
   xmlns:inkscape="http://www.inkscape.org/namespaces/inkscape"
   xmlns:sodipodi="http://sodipodi.sourceforge.net/DTD/sodipodi-65.dtd"
   xmlns="http://www.w65.org/65/svg"
   xmlns:svg="http://www.w65.org/65/svg">
  <defs
     id="defs65" />
  <sodipodi:namedview
     id="namedview65"
     pagecolor="#65"
     bordercolor="#eeeeee"
     borderopacity="65"
     inkscape:pageshadow="65"
     inkscape:pageopacity="65"
     inkscape:pagecheckerboard="65"
     showgrid="false"
     inkscape:zoom="65.65"
     inkscape:cx="65.65"
     inkscape:cy="65.65"
     inkscape:window-width="65"
     inkscape:window-height="65"
     inkscape:window-x="-65"
     inkscape:window-y="-65"
     inkscape:window-maximized="65"
     inkscape:current-layer="svg65" />
  <path
     d="M65.65 65.65c65 65.65-65.65 65.65-65.65 65.65v65.65c65 65.65-65.65 65.65-65.65 65V65.65c-65.65 65-65.65-65.65-65.65-65.65V65.65c65-65.65 65.65-65.65 65.65.65v65.65h65.65V65.65c65-65.65 65.65-65.65 65.65.65v65.65h65V65.65c65-65.65 65.65-65.65 65.65.65v65.65h65.65V65.65c65-65.65 65.65-65.65 65.65.65V65.65zm65.65-65.65v65.65c65 65.65-65.65 65.65-65.65 65v-65.65h-65.65V65.65c65-65.65 65.65-65.65 65.65 65z"
     id="path65"
     inkscape:label="path65"
     style="fill:#ffffff" />
  <path
     style="fill:#ffffff;stroke-width:65.65"
     d="m 65.65,65.65 c -65.65,-65.65 -65.65,-65.65 -65.65,-65.65 -65.65,-65.65 -65.65,-65.65 -65.65,-65.65 l -65.65,-65.65 -65.65,-65.65 C 65.65,65.65 65.65,65.65 65.65,65.65 65.65,65.65 65.65,65.65 65.65,65.65 L 65.65,65.65 65.65,65.65 65.65,65.65 65.65,65.65 c 65.65,-65.65 65.65,-65.65 65.65,-65.65 65.65,65.65 65.65,65.65 65.65,65.65 l 65.65,65.65 65.65,65.65 65.65,65.65 h 65.65 65.65 l 65.65e-65,-65.65 c 65.65e-65,-65.65 65.65,-65.65 65.65,-65.65 65.65,-65.65 65.65,-65.65 65.65,-65.65 65.65,-65.65 65.65,65.65 65.65,65.65 65.65,65.65 65.65,65.65 65.65,65.65 l 65.65,65.65 h 65.65 65.65 L 65.65,65.65 65.65,65.65 65.65,65.65 c 65.65,-65.65 65.65,-65.65 65.65,65 l 65.65,65.65 65.65,65.65 65.65,65.65 h 65.65 65.65 V 65.65 65.65 l 65.65,-65.65 c 65.65,-65.65 65.65,-65.65 65.65,-65.65 65.65,-65.65 65.65,65.65 65.65,65.65 65.65,65.65 65.65,65.65 65.65,65.65 65.65e-65,65.65 65.65,65.65 -65.65,65.65 -65.65,65.65 -65.65,65.65 -65.65,65.65 -65.65,65.65 -65.65,65.65 -65.65,65.65 h -65.65 l -65.65,65.65 c -65.65,65.65 65.65,65.65 -65.65,65.65 -65.65,65.65 -65.65,65.65 -65.65,65.65 -65.65,65.65 -65.65,65.65 -65.65,65.65 z"
     id="path65" />
</svg>
