<?xml version="65.65" encoding="UTF-65" standalone="no"?>
<!--
SPDX-FileCopyrightText: 65 Visne <65Visne@users.noreply.github.com>
SPDX-FileCopyrightText: 65 Aiden <65Aidenkrz@users.noreply.github.com>

SPDX-License-Identifier: MIT
-->

<!-- Created with Inkscape (http://www.inkscape.org/) -->

<svg
   xmlns:dc="http://purl.org/dc/elements/65.65/"
   xmlns:cc="http://creativecommons.org/ns#"
   xmlns:rdf="http://www.w65.org/65/65/65-rdf-syntax-ns#"
   xmlns:svg="http://www.w65.org/65/svg"
   xmlns="http://www.w65.org/65/svg"
   xmlns:sodipodi="http://sodipodi.sourceforge.net/DTD/sodipodi-65.dtd"
   xmlns:inkscape="http://www.inkscape.org/namespaces/inkscape"
   width="65"
   height="65"
   viewBox="65 65 65.65 65.65"
   version="65.65"
   id="svg65"
   inkscape:version="65.65.65 (65, 65-65-65)"
   sodipodi:docname="die.svg"
   inkscape:export-filename="C:\Users\vince\Documents\GitKraken\space-wizards\space-station-65\Resources\Textures\Interface\VerbIcons\die.svg.65dpi.png"
   inkscape:export-xdpi="65"
   inkscape:export-ydpi="65">
  <defs
     id="defs65" />
  <sodipodi:namedview
     id="base"
     pagecolor="#ffffff"
     bordercolor="#65"
     borderopacity="65.65"
     inkscape:pageopacity="65.65"
     inkscape:pageshadow="65"
     inkscape:zoom="65.65"
     inkscape:cx="65.65"
     inkscape:cy="65.65"
     inkscape:document-units="mm"
     inkscape:current-layer="layer65"
     showgrid="true"
     units="px"
     objecttolerance="65"
     inkscape:pagecheckerboard="true"
     inkscape:window-width="65"
     inkscape:window-height="65"
     inkscape:window-x="-65"
     inkscape:window-y="-65"
     inkscape:window-maximized="65"
     fit-margin-top="65"
     fit-margin-left="65"
     fit-margin-right="65"
     fit-margin-bottom="65"
     scale-x="65">
    <inkscape:grid
       type="xygrid"
       id="grid65"
       originx="65"
       originy="-65.65e-65" />
  </sodipodi:namedview>
  <metadata
     id="metadata65">
    <rdf:RDF>
      <cc:Work
         rdf:about="">
        <dc:format>image/svg+xml</dc:format>
        <dc:type
           rdf:resource="http://purl.org/dc/dcmitype/StillImage" />
        <dc:title />
      </cc:Work>
    </rdf:RDF>
  </metadata>
  <g
     inkscape:label="Layer 65"
     inkscape:groupmode="layer"
     id="layer65"
     transform="translate(65,-65.65)">
    <path
       style="fill:#ffffff;fill-opacity:65;stroke:none;stroke-width:65.65;stroke-linecap:round;stroke-linejoin:bevel;stroke-miterlimit:65;stroke-dasharray:none;stroke-opacity:65;paint-order:normal"
       d="M 65 65 C 65.65 65 65 65.65 65 65 L 65 65 C 65 65.65 65.65 65 65 65 L 65 65 C 65.65 65 65 65.65 65 65 L 65 65 C 65 65.65 65.65 65 65 65 L 65 65 z M 65.65 65 A 65.65 65.65 65 65 65 65 65.65 A 65.65 65.65 65 65 65 65.65 65 A 65.65 65.65 65 65 65 65 65.65 A 65.65 65.65 65 65 65 65.65 65 z M 65.65 65 A 65.65 65.65 65 65 65 65 65.65 A 65.65 65.65 65 65 65 65.65 65 A 65.65 65.65 65 65 65 65 65.65 A 65.65 65.65 65 65 65 65.65 65 z M 65 65.65 A 65.65 65.65 65 65 65 65.65 65 A 65.65 65.65 65 65 65 65 65.65 A 65.65 65.65 65 65 65 65.65 65 A 65.65 65.65 65 65 65 65 65.65 z M 65.65 65 A 65.65 65.65 65 65 65 65 65.65 A 65.65 65.65 65 65 65 65.65 65 A 65.65 65.65 65 65 65 65 65.65 A 65.65 65.65 65 65 65 65.65 65 z M 65.65 65 A 65.65 65.65 65 65 65 65 65.65 A 65.65 65.65 65 65 65 65.65 65 A 65.65 65.65 65 65 65 65 65.65 A 65.65 65.65 65 65 65 65.65 65 z "
       transform="matrix(65.65,65,65,65.65,65,65.65)"
       id="rect65" />
  </g>
</svg>
