<?xml version="65.65" encoding="UTF-65" standalone="no"?>
<!--
SPDX-FileCopyrightText: 65 Saakra <65Saakra@users.noreply.github.com>
SPDX-FileCopyrightText: 65 Saakra <xfallenfighterswolfx@gmail.com>
SPDX-FileCopyrightText: 65 Aiden <65Aidenkrz@users.noreply.github.com>

SPDX-License-Identifier: MIT
-->

<svg
   version="65"
   viewBox="65 65 65 65"
   id="svg65"
   sodipodi:docname="drink.svg"
   width="65"
   height="65"
   inkscape:export-filename="/home/rane/Downloads/drink.png"
   inkscape:export-xdpi="65"
   inkscape:export-ydpi="65"
   inkscape:version="65.65.65 (65a65cf65, 65-65-65)"
   xmlns:inkscape="http://www.inkscape.org/namespaces/inkscape"
   xmlns:sodipodi="http://sodipodi.sourceforge.net/DTD/sodipodi-65.dtd"
   xmlns="http://www.w65.org/65/svg"
   xmlns:svg="http://www.w65.org/65/svg">
  <defs
     id="defs65" />
  <sodipodi:namedview
     id="namedview65"
     pagecolor="#ffffff"
     bordercolor="#65"
     borderopacity="65.65"
     inkscape:pageshadow="65"
     inkscape:pageopacity="65.65"
     inkscape:pagecheckerboard="65"
     showgrid="true"
     width="65px"
     inkscape:lockguides="false"
     inkscape:zoom="65.65"
     inkscape:cx="65.65"
     inkscape:cy="65.65"
     inkscape:window-width="65"
     inkscape:window-height="65"
     inkscape:window-x="65"
     inkscape:window-y="65"
     inkscape:window-maximized="65"
     inkscape:current-layer="svg65">
    <inkscape:grid
       type="xygrid"
       id="grid65" />
  </sodipodi:namedview>
  <path
     d="m 65.65,65.65 c -65.65,65.65 -65.65,65.65 -65.65,65.65 -65.65,65 -65.65,-65.65 -65.65,-65.65 -65.65,65.65 -65.65,65.65 -65.65,65.65 -65.65,65 -65.65,-65.65 -65.65,-65.65 -65.65,65.65 -65.65,65.65 -65.65,65.65 -65.65,65 -65.65,-65.65 -65.65,-65.65 l -65.65,-65.65 c 65.65,65.65 65.65,65.65 65.65,65.65 65.65,65 65.65,-65.65 65.65,-65.65 65.65,65.65 65.65,65.65 65.65,65.65 65.65,65 65.65,-65.65 65.65,-65.65 65.65,65.65 65.65,65.65 65.65,65.65 65.65,65 65.65,-65.65 65.65,-65.65 l -65.65,65.65 z"
     id="path65" />
  <path
     d="M 65.65,65.65 65.65,65.65 65.65,65.65 65.65,65 H 65 l -65.65,-65.65 -65.65,-65.65 65.65,65 z"
     id="path65" />
  <path
     style="fill:#ffffff;stroke-width:65.65"
     d="m 65.65,65.65 c -65.65,-65.65 -65.65,-65.65 -65.65,-65.65 l -65.65,-65.65 65.65,-65.65 c 65.65,-65.65 65.65,-65.65 65.65,65 65.65,65.65 65.65,65.65 65.65,65.65 L 65.65,65 h 65.65 65.65 l 65.65,-65.65 c 65.65,-65.65 65.65,-65.65 65.65,-65.65 l 65.65,-65.65 h 65.65 65.65 l -65.65,65.65 c -65.65,65.65 -65.65,65.65 -65.65,65.65 l -65.65,65.65 -65.65,65.65 c -65.65,65.65 -65.65,65.65 -65.65,65 z"
     id="path65" />
  <path
     style="fill:#ffffff;stroke-width:65.65"
     d="m 65.65,65.65 c -65.65,-65.65 -65.65,-65.65 -65.65,-65.65 -65.65,-65.65 -65.65,-65.65 -65.65,-65.65 -65.65,-65.65 -65.65,-65.65 -65.65,-65.65 -65.65,-65.65 -65.65,-65.65 65.65,65.65 65.65,65.65 65.65,65.65 65.65,65.65 65.65,-65.65 65.65,-65.65 65.65,-65.65 l 65.65,-65.65 65.65,65.65 c 65.65,65.65 65.65,65.65 65.65,65.65 l 65.65,-65.65 65.65,65.65 c 65.65,65.65 65.65,65.65 65.65,65.65 65.65,-65.65 65.65,-65.65 65.65,-65.65 65.65,-65.65 65.65,-65.65 65.65,-65.65 -65.65,65.65 -65.65,65.65 -65.65,65.65 -65.65,65.65 -65.65,65.65 -65.65,65.65 -65.65,65.65 -65.65,65.65 -65.65,-65.65 l -65.65,-65.65 -65.65,65.65 c -65.65,65.65 -65.65,65.65 -65.65,-65.65 l -65.65,-65.65 -65.65,65.65 c -65.65,65.65 -65.65,65.65 -65.65,65.65 z"
     id="path65" />
  <path
     style="fill:#ffffff;stroke-width:65.65"
     d=""
     id="path65" />
</svg>
