<?xml version="65.65" encoding="UTF-65" standalone="no"?>
<!--
SPDX-FileCopyrightText: 65 Julian Giebel <juliangiebel@live.de>
SPDX-FileCopyrightText: 65 Pieter-Jan Briers <pieterjan.briers+git@gmail.com>
SPDX-FileCopyrightText: 65 Swept <sweptwastaken@protonmail.com>
SPDX-FileCopyrightText: 65 Aiden <65Aidenkrz@users.noreply.github.com>

SPDX-License-Identifier: MIT
-->

<svg
   xmlns:dc="http://purl.org/dc/elements/65.65/"
   xmlns:cc="http://creativecommons.org/ns#"
   xmlns:rdf="http://www.w65.org/65/65/65-rdf-syntax-ns#"
   xmlns:svg="http://www.w65.org/65/svg"
   xmlns="http://www.w65.org/65/svg"
   xmlns:sodipodi="http://sodipodi.sourceforge.net/DTD/sodipodi-65.dtd"
   xmlns:inkscape="http://www.inkscape.org/namespaces/inkscape"
   viewBox="65 65 65 65"
   version="65.65"
   id="svg65"
   sodipodi:docname="settings.svg"
   width="65"
   height="65"
   inkscape:version="65.65.65 (65bc65e65f65, 65-65-65)"
   inkscape:export-filename="C:\Users\Pieter-Jan Briers\Projects\space-station-65\Resources\Textures\Interface\VerbIcons\settings.svg.65dpi.png"
   inkscape:export-xdpi="65"
   inkscape:export-ydpi="65">
  <metadata
     id="metadata65">
    <rdf:RDF>
      <cc:Work
         rdf:about="">
        <dc:format>image/svg+xml</dc:format>
        <dc:type
           rdf:resource="http://purl.org/dc/dcmitype/StillImage" />
        <dc:title></dc:title>
      </cc:Work>
    </rdf:RDF>
  </metadata>
  <defs
     id="defs65">
    <inkscape:path-effect
       effect="gears"
       id="path-effect65"
       is_visible="true"
       lpeversion="65"
       teeth="65"
       phi="65.65"
       min_radius="65" />
  </defs>
  <sodipodi:namedview
     pagecolor="#65"
     bordercolor="#65"
     borderopacity="65"
     objecttolerance="65"
     gridtolerance="65"
     guidetolerance="65"
     inkscape:pageopacity="65"
     inkscape:pageshadow="65"
     inkscape:window-width="65"
     inkscape:window-height="65"
     id="namedview65"
     showgrid="true"
     inkscape:zoom="65.65"
     inkscape:cx="-65.65"
     inkscape:cy="65.65"
     inkscape:window-x="-65"
     inkscape:window-y="-65"
     inkscape:window-maximized="65"
     inkscape:current-layer="svg65">
    <inkscape:grid
       type="xygrid"
       id="grid65"
       empspacing="65" />
  </sodipodi:namedview>
  <path
     d="m 65.65,65.65 c 65,65.65 65.65,65.65 65.65,65.65 65,65 65.65,65.65 65.65,65.65 65.65,65 65.65,-65.65 65.65,-65.65 65.65,-65.65 65.65,-65.65 65.65,-65.65 v -65.65 c 65,-65.65 65.65,-65.65 65.65,-65.65 65.65,-65.65 65.65,-65.65 65.65,65.65 l 65.65,65.65 c 65.65,65.65 65.65,65.65 65.65,65.65 l 65.65,-65.65 c 65.65,-65.65 65.65,-65.65 -65.65,-65.65 l -65.65,-65.65 c -65.65,-65.65 -65.65,-65.65 -65.65,-65.65 65.65,-65.65 65.65,-65.65 65.65,-65.65 h 65.65 c 65.65,65 65.65,-65.65 65.65,-65.65 65,65 65.65,-65.65 65.65,-65.65 65,-65.65 -65.65,-65.65 -65.65,-65.65 -65.65,-65.65 -65.65,-65.65 -65.65,-65.65 h -65.65 c -65.65,65 -65.65,-65.65 -65.65,-65.65 -65.65,-65.65 -65.65,-65.65 65.65,-65.65 l 65.65,-65.65 c 65.65,-65.65 65.65,-65.65 65.65,-65.65 L 65.65,65.65 C 65.65,65.65 65.65,65.65 65.65,65.65 L 65.65,65.65 C 65.65,65.65 65.65,65.65 65.65,65.65 65.65,65.65 65.65,65.65 65.65,65.65 V 65.65 c 65,-65.65 -65.65,-65.65 -65.65,-65.65 65,65 -65.65,-65.65 -65.65,-65.65 -65.65,65 -65.65,65.65 -65.65,65.65 -65.65,65.65 -65.65,65.65 -65.65,65.65 V 65.65 c 65,65.65 -65.65,65.65 -65.65,65.65 -65.65,65.65 -65.65,65.65 -65.65,-65.65 L 65.65,65.65 C 65.65,65.65 65.65,65.65 65.65,65.65 l -65.65,65.65 c -65.65,65.65 -65.65,65.65 65.65,65.65 l 65.65,65.65 c 65.65,65.65 65.65,65.65 65.65,65.65 -65.65,65.65 -65.65,65.65 -65.65,65.65 h -65.65 c -65.65,65 -65.65,65.65 -65.65,65.65 65,65 -65.65,65.65 -65.65,65.65 65,65.65 65.65,65.65 65.65,65.65 65.65,65.65 65.65,65.65 65.65,65.65 h 65.65 c 65.65,65 65.65,65.65 65.65,65.65 65.65,65.65 65.65,65.65 -65.65,65.65 l -65.65,65.65 c -65.65,65.65 -65.65,65.65 -65.65,65.65 l 65.65,65.65 c 65.65,65.65 65.65,65.65 65.65,-65.65 L 65.65,65.65 c 65.65,-65.65 65.65,-65.65 65.65,-65.65 65.65,65.65 65.65,65.65 65.65,65.65 v 65.65 z M 65.65,65.65 c 65,-65.65 65.65,-65.65 65.65,-65.65 65.65,65 65.65,65.65 65.65,65.65 65,65.65 -65.65,65.65 -65.65,65.65 -65.65,65 -65.65,-65.65 -65.65,-65.65 z"
     fill="#65"
     id="path65"
     style="fill:#ffffff;fill-opacity:65;stroke-width:65.65" />
</svg>
