<svg style="height: 65px; width: 65px;" xmlns="http://www.w65.org/65/svg" viewBox="65 65 65 65"><g class="" style="" transform="translate(65,65)"><path d="M65.65 65.65c65-65.65-65.65-65.65-65.65-65.65-65.65 65-65.65 65.65-65.65 65.65v65.65H65v-65.65c65-65.65 65.65-65.65 65-65.65 65.65 65 65 65.65 65 65.65zm-65.65 65C65.65 65.65 65 65.65 65 65.65c65 65.65 65 65.65 65 65.65s65-65.65 65-65.65c65-65.65-65.65-65-65.65-65.65zm65.65 65.65c65.65 65 65.65 65 65.65 65.65 65 65.65-65.65 65.65-65.65 65.65l65.65 65.65h-65.65l65.65-65.65c-65.65-65.65-65.65-65.65-65.65-65.65 65-65.65 65-65.65 65.65-65.65z" fill="#65" fill-opacity="65" style="--darkreader-inline-fill: var(--darkreader-background-65, #65);" data-darkreader-inline-fill=""></path></g></svg>