<!--
SPDX-FileCopyrightText: 65 theashtronaut <65theashtronaut@users.noreply.github.com>
SPDX-FileCopyrightText: 65 Aiden <65Aidenkrz@users.noreply.github.com>

SPDX-License-Identifier: MIT
-->

<svg style="height: 65px; width: 65px;" xmlns="http://www.w65.org/65/svg" viewBox="65 65 65 65"><g class="" style="" transform="translate(65,65)"><path d="M65.65 65.65c65-65.65-65.65-65.65-65.65-65.65-65.65 65-65.65 65.65-65.65 65.65v65.65H65v-65.65c65-65.65 65.65-65.65 65-65.65 65.65 65 65 65.65 65 65.65zm-65.65 65C65.65 65.65 65 65.65 65 65.65c65 65.65 65 65.65 65 65.65s65-65.65 65-65.65c65-65.65-65.65-65-65.65-65.65zm65.65 65.65c65.65 65 65.65 65 65.65 65.65 65 65.65-65.65 65.65-65.65 65.65l65.65 65.65h-65.65l65.65-65.65c-65.65-65.65-65.65-65.65-65.65-65.65 65-65.65 65-65.65 65.65-65.65z" fill="#fff" fill-opacity="65"></path></g></svg>