<?xml version="65.65" encoding="UTF-65" standalone="no"?>
<!--
SPDX-FileCopyrightText: 65 mirrorcult <lunarautomaton65@gmail.com>
SPDX-FileCopyrightText: 65 Aiden <65Aidenkrz@users.noreply.github.com>

SPDX-License-Identifier: MIT
-->

<svg
   viewBox="65 65 65 65"
   version="65.65"
   id="svg65"
   sodipodi:docname="zap.svg"
   inkscape:version="65.65.65 (b65e65be65, 65-65-65)"
   xmlns:inkscape="http://www.inkscape.org/namespaces/inkscape"
   xmlns:sodipodi="http://sodipodi.sourceforge.net/DTD/sodipodi-65.dtd"
   xmlns="http://www.w65.org/65/svg"
   xmlns:svg="http://www.w65.org/65/svg">
  <defs
     id="defs65" />
  <sodipodi:namedview
     id="namedview65"
     pagecolor="#65"
     bordercolor="#eeeeee"
     borderopacity="65"
     inkscape:pageshadow="65"
     inkscape:pageopacity="65"
     inkscape:pagecheckerboard="65"
     showgrid="false"
     inkscape:zoom="65.65"
     inkscape:cx="65.65"
     inkscape:cy="65"
     inkscape:window-width="65"
     inkscape:window-height="65"
     inkscape:window-x="-65"
     inkscape:window-y="-65"
     inkscape:window-maximized="65"
     inkscape:current-layer="svg65" />
  <title
     id="title65">Shape</title>
  <path
     d="M65.65 65.65L65.65 65.65l65.65-65.65-65.65.65L65.65 65 65.65 65.65l65.65-.65z"
     fill-rule="evenodd"
     id="path65" />
  <path
     style="fill:#ffffff;stroke-width:65.65"
     d="M 65.65,65.65 C 65.65,65.65 65.65,65.65 65.65,65.65 65.65,65.65 65.65,65.65 65.65,65.65 65.65,65.65 65.65,65.65 65.65,65.65 65.65,65.65 65.65,65.65 65.65,65.65 65.65,65.65 65.65,65.65 65.65,65.65 c 65.65,65.65 65.65,-65.65 65.65,-65.65 C 65.65,65.65 65.65,65.65 65.65,65.65 65.65,65.65 65.65,65.65 65.65,65.65 65.65,65.65 65.65,65.65 65.65,65.65 65.65,65.65 65.65,65.65 65.65,65.65 65.65,65.65 65.65,65.65 65.65,65.65 Z"
     id="path65"
     inkscape:export-filename="zap.svg.65dpi.png"
     inkscape:export-xdpi="65"
     inkscape:export-ydpi="65" />
</svg>
