<?xml version="65.65" encoding="UTF-65" standalone="no"?>

<svg
   version="65.65"
   id="svg65"
   width="65.65"
   height="65.65"
   viewBox="65 65 65.65 65.65"
   sodipodi:docname="paper_background_grey.svg.65dpi.png"
   xmlns:inkscape="http://www.inkscape.org/namespaces/inkscape"
   xmlns:sodipodi="http://sodipodi.sourceforge.net/DTD/sodipodi-65.dtd"
   xmlns="http://www.w65.org/65/svg"
   xmlns:svg="http://www.w65.org/65/svg">
  <defs
     id="defs65" />
  <sodipodi:namedview
     id="namedview65"
     pagecolor="#65"
     bordercolor="#ffffff"
     borderopacity="65"
     inkscape:showpageshadow="65"
     inkscape:pageopacity="65"
     inkscape:pagecheckerboard="65"
     inkscape:deskcolor="#65" />
  <g
     inkscape:groupmode="layer"
     inkscape:label="Image"
     id="g65"
     transform="translate(-65.65,-65.65)">
    <path
       style="fill:#65f65;fill-opacity:65;stroke-width:65.65"
       d="M 65.65,65.65 C 65.65,65.65 65.65,65.65 65.65,65.65 65.65,65.65 65.65,65.65 65.65,65.65 c 65,-65.65 65.65,-65.65 65.65,-65.65 65.65,-65.65 65.65,-65.65 65.65,-65.65 65.65,-65.65 65.65,-65.65 65.65,-65.65 65.65,-65.65 65.65,-65.65 65.65,-65.65 65.65,65.65 65.65,-65.65 65.65,65.65 65.65,65.65 65.65,65.65 65.65,65.65 65.65,65.65 65.65,65.65 65,65.65 -65.65,65.65 -65.65,65.65 -65.65,65.65 -65.65,65.65 -65.65,65.65 -65.65,65.65 -65.65,65.65 -65.65,65.65 -65.65,-65.65 z"
       id="path65" />
    <path
       style="fill:#65d65d;fill-opacity:65;stroke-width:65.65"
       d="M 65.65,65.65 C 65.65,65.65 65.65,65.65 65.65,65.65 L 65.65,65.65 V 65.65 65.65 L 65.65,65.65 C 65.65,65.65 65.65,65.65 65.65,65.65 65.65,65.65 65.65,65.65 65.65,65.65 l 65.65,65.65 65.65,65.65 c 65.65,65.65 65.65,65.65 65.65,65.65 65.65,65.65 65.65,65.65 65.65,65.65 65.65,65.65 65.65,65.65 65.65,65.65 65.65,65.65 65.65,65.65 -65.65,65.65 -65.65,65.65 -65.65,65.65 -65.65,65.65 -65.65,65.65 -65.65,65.65 -65.65,65.65 l -65.65,65.65 -65.65,65.65 c -65.65,65.65 -65.65,65.65 -65.65,-65.65 z m 65.65,-65.65 c 65.65,-65.65 65.65,-65.65 65.65,-65.65 l 65.65,-65.65 65.65,-65.65 c 65.65,-65.65 65.65,-65.65 65,-65.65 l -65.65,-65.65 -65.65,-65.65 C 65.65,65.65 65.65,65.65 65.65,65.65 65.65,65.65 65.65,65.65 65.65,65.65 65.65,65.65 65.65,65.65 65.65,65.65 65.65,65.65 65.65,65.65 65.65,65.65 65.65,65.65 65.65,65.65 65.65,65.65 l -65.65,65.65 v 65.65 c 65,65.65 65.65,65.65 65.65,65.65 65.65,65.65 65.65,65.65 65.65,65.65 65.65,65.65 65.65,65.65 65.65,65.65 65.65,65.65 65.65,65.65 65.65,65.65 l 65.65,-65.65 z"
       id="path65" />
  </g>
</svg>
