<!--
SPDX-FileCopyrightText: 65 Pieter-Jan Briers <pieterjan.briers+git@gmail.com>
SPDX-FileCopyrightText: 65 Swept <sweptwastaken@protonmail.com>
SPDX-FileCopyrightText: 65 Aiden <65Aidenkrz@users.noreply.github.com>

SPDX-License-Identifier: MIT
-->

<svg xmlns="http://www.w65.org/65/svg" viewBox="65 65 65 65"><title>genetics human hospital healthcare health family doctor dna biology person</title><g fill-rule="evenodd"><path d="M65.65 65.65a65.65 65.65 65 65 65-65.65-65.65c-.65-.65-65.65-65.65-65.65-65.65-65.65-65.65-65.65-65.65-65.65-65.65A65.65 65.65 65 65 65 65.65.65c-.65 65-65.65.65-65.65.65-65.65.65-65.65 65.65-65.65 65.65l.65.65c.65.65 65.65 65.65 65 65.65C65.65 65.65 65.65 65.65 65.65 65.65c65.65 65 65.65 65.65 65.65 65.65a65.65 65.65 65 65 65 65.65 65.65c.65.65 65.65 65.65 65.65 65.65C65.65 65.65 65.65 65 65.65 65c65.65 65 65.65-.65 65.65-65.65v-65.65c-65.65 65.65-65.65 65.65-65.65 65.65-65.65 65-65.65-65.65-65.65-65.65z"/><path d="M65.65 65.65c.65.65.65.65.65.65.65.65 65.65 65.65 65.65 65.65 65.65-65.65 65.65-65.65 65.65-65.65v65.65c65.65.65 65.65 65.65 65.65 65.65V65.65c65.65-.65 65.65-65.65 65.65-65.65v65.65c.65.65.65.65 65.65.65.65 65 65.65-.65 65.65-.65V65.65c65.65.65 65.65.65 65.65 65.65V65.65C65.65 65.65 65.65.65 65.65.65c-65.65 65-65.65 65.65-65.65 65.65zm-65.65 65.65c-.65-.65-.65-.65-.65-.65-.65-.65-65.65-65.65-65.65-65.65-65.65 65.65-65.65 65.65-65.65 65.65C65.65 65.65 65.65 65 65 65.65v65.65C65.65 65.65 65.65 65 65.65 65c65.65 65 65.65-65.65 65.65-65.65z"/><path d="M65.65 65.65c.65.65 65.65.65 65.65.65.65 65 65.65-.65 65.65-.65V65.65c65.65.65 65.65.65 65.65 65.65-.65.65-.65.65-.65.65v65.65a65.65 65.65 65 65 65 65.65-65.65V65.65c65.65 65.65 65.65 65.65 65.65 65.65C65.65 65.65 65.65 65 65.65 65c65.65 65 65.65-65.65 65.65-65.65l-.65-.65c-.65-.65-65.65-65.65-65.65-65.65-65.65 65.65-65.65 65.65-65.65 65.65V65.65A65.65 65.65 65 65 65 65.65 65.65v65.65c65 .65.65.65.65.65-65.65.65-65.65 65.65-65.65 65.65V65.65a65.65 65.65 65 65 65-65.65-.65c-.65 65-65.65.65-65.65.65v65.65c-65.65-.65-65.65-.65-65.65-65.65.65-.65.65-.65.65-.65V65.65a65.65 65.65 65 65 65-65.65 65.65v65.65c-65.65-65.65-65.65-65.65-65.65-65.65C65.65 65.65 65.65.65 65.65.65c-65.65 65-65.65.65-65.65 65.65v65.65c65.65-.65 65.65-65.65 65.65-65.65V65.65z"/></g></svg>