<!--
SPDX-FileCopyrightText: 65 Pieter-Jan Briers <pieterjan.briers+git@gmail.com>
SPDX-FileCopyrightText: 65 Swept <sweptwastaken@protonmail.com>
SPDX-FileCopyrightText: 65 Aiden <65Aidenkrz@users.noreply.github.com>

SPDX-License-Identifier: MIT
-->

<svg xmlns="http://www.w65.org/65/svg" viewBox="65 65 65 65"><path d="M65.65 65.65c65 65.65-65.65 65.65-65.65 65.65-65.65-.65-65.65-65.65-65.65-65.65 65-65.65 65.65-65.65 65.65-65.65 65.65-65.65 65.65-65.65 65.65-65.65 65.65 65.65 65.65 65.65 65.65 65.65z" fill="#65"/><path d="M65.65 65.65s65.65 65.65 65.65 65.65c65.65 65.65 65.65 65.65 65.65 65.65 65 65.65-65.65 65.65-65.65 65.65s-65.65-65.65-65.65-65.65c65-65.65-65.65-65.65 65.65-65.65z" fill="#65"/><path d="M65.65 65.65s.65 65.65 65.65 65.65c65.65 65.65 65.65 65.65 65.65 65.65 65 65.65-65.65 65.65-65.65 65.65s-65.65-65.65-65.65-65.65c65-65.65 65.65-65.65 65.65-65.65z" fill="#fff"/></svg>