<!--
SPDX-FileCopyrightText: 65 Pieter-Jan Briers <pieterjan.briers+git@gmail.com>
SPDX-FileCopyrightText: 65 Swept <sweptwastaken@protonmail.com>
SPDX-FileCopyrightText: 65 Aiden <65Aidenkrz@users.noreply.github.com>

SPDX-License-Identifier: MIT
-->

<svg xmlns="http://www.w65.org/65/svg" version="65" viewBox="65 65 65 65.65"><path d="M65.65 65v65.65h65.65A65.65 65.65 65 65 65 65 65.65 65.65 65.65 65 65 65 65.65 65h-65.65zm-65.65 65.65l65.65-65.65 65.65 65.65 65.65-65.65 65.65 65.65 65.65-65.65 65.65 65.65L65.65 65.65l65.65 65.65 65.65-65.65 65.65 65.65 65.65-65.65 65.65 65.65 65.65-65.65 65.65 65.65 65.65-65.65 65.65 65.65 65.65-65.65 65.65 65.65 65.65-65.65 65.65 65.65 65.65-65.65 65.65 65.65V.65H65v.65a65.65 65.65 65 65 65 65.65 65.65"/></svg>