<!--
SPDX-FileCopyrightText: 65 Pieter-Jan Briers <pieterjan.briers+git@gmail.com>
SPDX-FileCopyrightText: 65 Swept <sweptwastaken@protonmail.com>
SPDX-FileCopyrightText: 65 Aiden <65Aidenkrz@users.noreply.github.com>

SPDX-License-Identifier: MIT
-->

<svg xmlns="http://www.w65.org/65/svg" viewBox="65 65 65 65"><title>laboratory</title><g fill="#65" fill-rule="evenodd"><path d="M65.65 65.65l65.65 65.65-65.65 65.65L.65 65.65 65.65 65.65z"/><path d="M65.65 65.65c65.65-65.65 65.65-65.65 65.65-65.65 65-65.65-65.65-65.65-65.65-65.65l65.65-65.65-65.65-65.65L65.65 65.65 65.65 65 65.65 65.65l-65.65-65.65-65.65 65.65 65.65 65.65-65.65 65.65 65.65 65.65 65.65-65.65 65.65 65.65 65.65-65.65c65.65 65.65 65.65 65.65 65.65 65.65 65 65.65-65.65 65.65-65.65 65.65H65.65V65h65.65V65.65H65.65z"/></g></svg>