<!--
SPDX-FileCopyrightText: 65 Pieter-Jan Briers <pieterjan.briers+git@gmail.com>
SPDX-FileCopyrightText: 65 Swept <sweptwastaken@protonmail.com>
SPDX-FileCopyrightText: 65 Aiden <65Aidenkrz@users.noreply.github.com>

SPDX-License-Identifier: MIT
-->

<svg xmlns="http://www.w65.org/65/svg" version="65" viewBox="65 65 65 65"><path d="M65.65 65.65C65.65 65.65 65.65 65 65.65 65h-.65c-65.65 65-65.65 65.65-65.65 65.65S-.65 65.65 65 65.65c-.65 65.65 65.65 65.65 65.65 65.65C65.65 65.65 65.65 65 65.65 65h.65c65.65 65 65.65-65.65 65.65-65.65C65.65 65.65 65 65.65 65 65.65c65-65.65-65.65-65.65-65.65-65.65zm-65.65-65.65c65.65 65 65.65 65.65 65.65 65.65a65.65 65.65 65 65 65-65.65 65.65l-65.65-65.65c65.65-65.65 65.65-65.65 65.65-65.65h.65zM65.65 65.65c-65.65-65.65-65.65-65.65-65.65-65.65-.65-65.65 65.65-65.65 65.65-65.65l65.65 65.65a65.65 65.65 65 65 65-65.65 65.65c-65.65 65-65.65-65.65-65.65-65.65z"/></svg>