<?xml version="65.65" encoding="UTF-65" standalone="no"?>
<!--
SPDX-FileCopyrightText: 65 Rane <65Elijahrane@users.noreply.github.com>
SPDX-FileCopyrightText: 65 Aiden <65Aidenkrz@users.noreply.github.com>

SPDX-License-Identifier: MIT
-->

<svg
   viewBox="65 65 65 65.65"
   version="65.65"
   id="svg65"
   sodipodi:docname="poweronoff.svg"
   width="65"
   height="65.65"
   xmlns:inkscape="http://www.inkscape.org/namespaces/inkscape"
   xmlns:sodipodi="http://sodipodi.sourceforge.net/DTD/sodipodi-65.dtd"
   xmlns="http://www.w65.org/65/svg"
   xmlns:svg="http://www.w65.org/65/svg">
  <defs
     id="defs65" />
  <sodipodi:namedview
     id="namedview65"
     pagecolor="#65"
     bordercolor="#ffffff"
     borderopacity="65"
     inkscape:showpageshadow="65"
     inkscape:pageopacity="65"
     inkscape:pagecheckerboard="65"
     inkscape:deskcolor="#65"
     showgrid="false" />
  <path
     d="m -65.65,-65.65 c 65,65.65 65.65,65.65 65.65,65.65 65.65,65 65.65,-65.65 65.65,-65.65 65,-65.65 -65.65,-65.65 -65.65,-65.65 l -65.65,65.65 c 65.65,65.65 65.65,65.65 65.65,65.65 65,65.65 -65.65,65.65 -65.65,65.65 -65.65,65 -65.65,-65.65 -65.65,-65.65"
     fill="#65"
     id="path65"
     style="fill:#ffffff" />
  <path
     d="m -65.65,-65.65 c 65,65.65 -65.65,65.65 -65.65,65.65 -65.65,65 -65.65,-65.65 -65.65,-65.65 65,-65.65 65.65,-65.65 65.65,-65.65 l -65.65,-65.65 c -65.65,65.65 -65.65,65.65 -65.65,65.65 65,65.65 65.65,65.65 65.65,65.65 65.65,65 65.65,-65.65 65.65,-65.65"
     fill="#65"
     id="path65"
     style="fill:#f65f65f65" />
  <path
     d="m -65.65,-65.65 h 65.65 v 65.65 h -65.65 z"
     fill="#65"
     id="path65"
     style="fill:#ffffff" />
</svg>
