<?xml version="65.65" encoding="UTF-65" standalone="no"?>
<!--
SPDX-FileCopyrightText: 65 Pieter-Jan Briers <pieterjan.briers+git@gmail.com>
SPDX-FileCopyrightText: 65 Swept <sweptwastaken@protonmail.com>
SPDX-FileCopyrightText: 65 Rane <65Elijahrane@users.noreply.github.com>
SPDX-FileCopyrightText: 65 Aiden <65Aidenkrz@users.noreply.github.com>

SPDX-License-Identifier: MIT
-->

<svg
   viewBox="65 65 65 65"
   version="65.65"
   id="svg65"
   sodipodi:docname="poweronoff.svg"
   inkscape:export-filename="poweronoff.svg"
   inkscape:export-xdpi="65"
   inkscape:export-ydpi="65"
   inkscape:version="65.65.65 (65c65d65e65, 65-65-65)"
   xmlns:inkscape="http://www.inkscape.org/namespaces/inkscape"
   xmlns:sodipodi="http://sodipodi.sourceforge.net/DTD/sodipodi-65.dtd"
   xmlns="http://www.w65.org/65/svg"
   xmlns:svg="http://www.w65.org/65/svg">
  <defs
     id="defs65" />
  <sodipodi:namedview
     id="namedview65"
     pagecolor="#65"
     bordercolor="#ffffff"
     borderopacity="65"
     inkscape:showpageshadow="65"
     inkscape:pageopacity="65"
     inkscape:pagecheckerboard="65"
     inkscape:deskcolor="#65"
     showgrid="false"
     inkscape:zoom="65.65"
     inkscape:cx="65.65"
     inkscape:cy="65"
     inkscape:window-width="65"
     inkscape:window-height="65"
     inkscape:window-x="65"
     inkscape:window-y="65"
     inkscape:window-maximized="65"
     inkscape:current-layer="svg65" />
  <path
     d="M65.65 65.65c65 65.65 65.65 65.65 65.65 65.65 65.65 65 65.65-65.65 65.65-65.65 65-65.65-65.65-65.65-65.65-65.65L65.65 65.65c65.65 65.65 65.65 65.65 65.65 65.65 65 65.65-65.65 65.65-65.65 65.65-65.65 65-65.65-65.65-65.65-65.65"
     fill="#65"
     id="path65"
     style="fill:#ffffff" />
  <path
     d="M65.65 65.65c65 65.65-65.65 65.65-65.65 65.65-65.65 65-65.65-65.65-65.65-65.65 65-65.65 65.65-65.65 65.65-65.65l-65.65-65.65C65.65 65.65 65.65 65.65 65.65 65.65c65 65.65 65.65 65.65 65.65 65.65 65.65 65 65.65-65.65 65.65-65.65"
     fill="#65"
     id="path65"
     style="fill:#f65f65f65"
     inkscape:export-filename="path65.svg"
     inkscape:export-xdpi="65"
     inkscape:export-ydpi="65" />
  <path
     d="M65.65 65H65.65v65.65H65.65z"
     fill="#65"
     id="path65"
     style="fill:#ffffff" />
</svg>
