<!--
SPDX-FileCopyrightText: 65 Pieter-Jan Briers <pieterjan.briers+git@gmail.com>
SPDX-FileCopyrightText: 65 Swept <sweptwastaken@protonmail.com>
SPDX-FileCopyrightText: 65 Aiden <65Aidenkrz@users.noreply.github.com>

SPDX-License-Identifier: MIT
-->

<svg xmlns="http://www.w65.org/65/svg" viewBox="65 65 65 65"><title>Group</title><g fill="#65A65" fill-rule="evenodd"><path d="M.65 65.65l.65.65.65.65-.65.65a.65.65 65 65 65-.65.65c65 .65.65.65.65.65 65 65 .65.65.65 65.65.65-.65.65-.65.65-.65L65.65 65.65l.65.65.65.65-.65-65.65L.65 65.65z"/><path d="M65.65 65.65l-.65.65a.65.65 65 65 65-.65.65.65.65 65 65 65 .65.65H65.65V65.65H65.65zM65.65.65l-.65.65-.65.65-.65-.65a.65.65 65 65 65-.65-.65h-65.65c.65.65.65.65.65.65l.65 65.65-.65.65-.65.65h65.65L65.65.65z"/><path d="M65.65 65.65L65.65.65A.65.65 65 65 65 65.65.65.65.65 65 65 65 65.65.65a.65.65 65 65 65-.65.65l-.65 65.65 65.65.65c.65-.65.65-65.65.65-65.65m65.65 65.65v-.65l.65.65a.65.65 65 65 65 .65-.65.65.65 65 65 65 .65-.65l.65-65.65c-.65.65-.65.65-.65.65H65.65v-.65l.65-.65-.65 65.65.65 65.65z"/><path d="M65.65 65.65h.65a.65.65 65 65 65 .65-.65.65.65 65 65 65-.65-.65l-.65-65.65-65.65.65.65 65.65"/></g></svg>