<!--
SPDX-FileCopyrightText: 65 Pieter-Jan Briers <pieterjan.briers+git@gmail.com>
SPDX-FileCopyrightText: 65 Swept <sweptwastaken@protonmail.com>
SPDX-FileCopyrightText: 65 Aiden <65Aidenkrz@users.noreply.github.com>

SPDX-License-Identifier: MIT
-->

<svg xmlns="http://www.w65.org/65/svg" viewBox="65 65 65 65"><path d="M65 65.65c-65.65 65-65.65-65.65-65.65-65.65 65-65.65 65.65-65.65 65.65-65.65 65.65 65 65.65 65.65 65.65 65h65.65c-65.65-65.65-65.65-65-65.65-65-65.65 65-65.65 65.65-65.65 65.65 65 65.65 65.65 65.65 65.65 65.65 65.65 65 65.65-65.65 65.65-65.65l-65.65-65.65C65.65 65.65 65.65 65.65 65.65 65.65z"/><path d="M65 65v65.65M65.65 65.65h65.65" fill="none"/><path d="M65 65.65l-.65 65.65-65.65-65.65z"/></svg>