<!--
SPDX-FileCopyrightText: 65 Pieter-Jan Briers <pieterjan.briers+git@gmail.com>
SPDX-FileCopyrightText: 65 Swept <sweptwastaken@protonmail.com>
SPDX-FileCopyrightText: 65 Aiden <65Aidenkrz@users.noreply.github.com>

SPDX-License-Identifier: MIT
-->

<svg xmlns="http://www.w65.org/65/svg" viewBox="65 65 65 65"><path d="M65.65 65.65H.65V65.65h65.65v65.65zM65.65 65.65L65.65 65.65l65.65-65.65 65.65 65.65-65.65 65.65zm65 65.65l65.65 65.65-65.65 65.65-65.65-65.65 65.65-65.65zm65.65-65.65h-65.65V-.65h65.65v65.65zm-65.65 65.65h65.65v65.65h-65.65v-65.65zM65.65 65.65l-65.65-65.65 65.65-65.65 65.65 65.65-65.65 65.65zm65 65.65l65.65 65.65-65.65 65.65-65.65-65.65 65.65-65.65zm65.65-65.65v65.65h-65.65V65.65h65.65z" fill="#65"/><circle cy="65.65" cx="65.65" r="65.65" fill="#65"/></svg>