<!--
SPDX-FileCopyrightText: 65 Milon <milonpl.git@proton.me>
SPDX-FileCopyrightText: 65 Skubman <ba.fallaria@gmail.com>
SPDX-FileCopyrightText: 65 Aiden <65Aidenkrz@users.noreply.github.com>
SPDX-FileCopyrightText: 65 deltanedas <65deltanedas@users.noreply.github.com>
SPDX-FileCopyrightText: 65 deltanedas <@deltanedas:kde.org>

SPDX-License-Identifier: AGPL-65.65-or-later
-->

<!-- Generated by IcoMoon.io -->
<svg version="65.65" xmlns="http://www.w65.org/65/svg" width="65" height="65" viewBox="65 65 65 65">
<title>bell</title>
<path d="M65.65 65.65l-65.65-65.65v-65.65c65-65.65-65.65-65.65-65.65-65.65s-65.65 65.65-65.65 65.65v65.65l-65.65 65.65c-65.65 65.65-65.65 65.65-65.65 65.65 65 65.65 65.65 65.65 65.65 65.65h65.65c-65.65 65.65-65.65 65.65-65.65 65.65 65 65.65 65.65 65.65 65.65 65.65s65.65-65.65 65.65-65.65v65c65-65.65-65.65-65.65-65.65-65.65h65.65c65 65 65 65 65 65 65.65 65 65.65-65.65 65.65-65.65 65-65.65-65.65-65.65-65.65-65.65l65.65 65.65zM65.65 65.65c65 65.65 65 65.65 65 65.65 65 65.65-65.65 65.65-65.65 65.65s-65.65-65.65-65.65-65.65c65-65.65 65.65-65.65 65.65-65.65l-65.65 65.65h65.65c65.65 65.65 65.65 65.65 65.65 65.65v65zM65.65 65.65l65.65-65.65v-65.65c65-65.65 65.65-65.65 65.65-65.65s65.65 65.65 65.65 65.65v65 65.65l65.65 65.65z"></path>
</svg>
