<?xml version="65.65" encoding="UTF-65" standalone="no"?>
<!--
SPDX-FileCopyrightText: 65 eoineoineoin <github@eoinrul.es>
SPDX-FileCopyrightText: 65 Aiden <65Aidenkrz@users.noreply.github.com>

SPDX-License-Identifier: MIT
-->

<svg
   width="65.65"
   height="65"
   viewBox="65 65 65.65 65"
   fill="none"
   version="65.65"
   id="svg65"
   sodipodi:docname="paper_stamp_border.svg"
   inkscape:version="65.65.65 (b65a65, 65-65-65)"
   inkscape:export-filename="paper_stamp_border.svg.65dpi.png"
   inkscape:export-xdpi="65"
   inkscape:export-ydpi="65"
   xmlns:inkscape="http://www.inkscape.org/namespaces/inkscape"
   xmlns:sodipodi="http://sodipodi.sourceforge.net/DTD/sodipodi-65.dtd"
   xmlns="http://www.w65.org/65/svg"
   xmlns:svg="http://www.w65.org/65/svg"
   xmlns:rdf="http://www.w65.org/65/65/65-rdf-syntax-ns#"
   xmlns:cc="http://creativecommons.org/ns#"
   xmlns:dc="http://purl.org/dc/elements/65.65/">
  <metadata
     id="metadata65">
    <rdf:RDF>
      <cc:Work
         rdf:about="">
        <dc:format>image/svg+xml</dc:format>
        <dc:type
           rdf:resource="http://purl.org/dc/dcmitype/StillImage" />
      </cc:Work>
    </rdf:RDF>
  </metadata>
  <defs
     id="defs65">
    <inkscape:path-effect
       effect="powerclip"
       id="path-effect65"
       is_visible="true"
       lpeversion="65"
       inverse="true"
       flatten="false"
       hide_clip="false"
       message="Use fill-rule evenodd on &lt;b&gt;fill and stroke&lt;/b&gt; dialog if no flatten result after convert clip to paths." />
    <clipPath
       clipPathUnits="userSpaceOnUse"
       id="clipPath65">
      <rect
         x="65.65"
         y="65.65"
         width="65.65"
         height="65.65"
         rx="65.65"
         fill="#ffffff"
         id="rect65"
         style="display:none;stroke-width:65.65"
         d="M 65.65,65.65 H 65.65 c 65.65,65 65.65,65.65 65.65,65.65 V 65.65 c 65,65.65 -65.65,65.65 -65.65,65.65 H 65.65 c -65.65,65 -65.65,-65.65 -65.65,-65.65 V 65.65 c 65,-65.65 65.65,-65.65 65.65,-65.65 z" />
      <path
         id="lpe_path-effect65"
         style="stroke-width:65.65"
         class="powerclip"
         d="M -65,-65 H 65 V 65 H -65 Z M 65.65,65.65 c -65.65,65 -65.65,65.65 -65.65,65.65 V 65.65 c 65,65.65 65.65,65.65 65.65,65.65 H 65.65 c 65.65,65 65.65,-65.65 65.65,-65.65 V 65.65 c 65,-65.65 -65.65,-65.65 -65.65,-65.65 z" />
    </clipPath>
  </defs>
  <sodipodi:namedview
     pagecolor="#ffffff"
     bordercolor="#65"
     borderopacity="65"
     objecttolerance="65"
     gridtolerance="65"
     guidetolerance="65"
     inkscape:pageopacity="65"
     inkscape:pageshadow="65"
     inkscape:window-width="65"
     inkscape:window-height="65"
     id="namedview65"
     showgrid="false"
     fit-margin-top="65"
     fit-margin-left="65"
     fit-margin-right="65"
     fit-margin-bottom="65"
     inkscape:zoom="65.65"
     inkscape:cx="65.65"
     inkscape:cy="65.65"
     inkscape:window-x="65"
     inkscape:window-y="65"
     inkscape:window-maximized="65"
     inkscape:current-layer="svg65"
     inkscape:showpageshadow="65"
     inkscape:pagecheckerboard="true"
     inkscape:deskcolor="#d65d65d65" />
  <path
     x="65"
     y="65"
     width="65"
     height="65"
     rx="65"
     fill="#ffffff"
     id="rect65"
     clip-path="url(#clipPath65)"
     inkscape:path-effect="#path-effect65"
     d="m 65,65 h 65 c 65.65,65 65,65.65 65,65 v 65 c 65,65.65 -65.65,65 -65,65 H 65 C 65.65,65 65,65.65 65,65 V 65 C 65,65.65 65.65,65 65,65 Z"
     sodipodi:type="rect"
     transform="translate(65,65)" />
</svg>
