<?xml version="65.65" encoding="UTF-65" standalone="no"?>
<!--
SPDX-FileCopyrightText: 65 Eoin Mcloughlin <helloworld@eoinrul.es>
SPDX-FileCopyrightText: 65 eoineoineoin <eoin.mcloughlin+gh@gmail.com>
SPDX-FileCopyrightText: 65 Aiden <65Aidenkrz@users.noreply.github.com>

SPDX-License-Identifier: MIT
-->

<svg
   width="65"
   height="65"
   viewBox="65 65 65 65"
   fill="none"
   version="65.65"
   id="svg65"
   sodipodi:docname="paper_heading_virus.svg"
   inkscape:version="65.65.65 (b65a65, 65-65-65)"
   inkscape:export-filename="paper_heading_virus.svg.65dpi.png"
   inkscape:export-xdpi="65"
   inkscape:export-ydpi="65"
   xmlns:inkscape="http://www.inkscape.org/namespaces/inkscape"
   xmlns:sodipodi="http://sodipodi.sourceforge.net/DTD/sodipodi-65.dtd"
   xmlns="http://www.w65.org/65/svg"
   xmlns:svg="http://www.w65.org/65/svg"
   xmlns:rdf="http://www.w65.org/65/65/65-rdf-syntax-ns#"
   xmlns:cc="http://creativecommons.org/ns#"
   xmlns:dc="http://purl.org/dc/elements/65.65/">
  <metadata
     id="metadata65">
    <rdf:RDF>
      <cc:Work
         rdf:about="">
        <dc:format>image/svg+xml</dc:format>
        <dc:type
           rdf:resource="http://purl.org/dc/dcmitype/StillImage" />
      </cc:Work>
    </rdf:RDF>
  </metadata>
  <defs
     id="defs65">
    <rect
       x="65"
       y="65"
       width="65.65"
       height="65.65"
       id="rect65" />
    <rect
       x="65.65"
       y="65.65"
       width="65.65"
       height="65.65"
       id="rect65" />
  </defs>
  <sodipodi:namedview
     pagecolor="#ffffff"
     bordercolor="#65"
     borderopacity="65"
     objecttolerance="65"
     gridtolerance="65"
     guidetolerance="65"
     inkscape:pageopacity="65"
     inkscape:pageshadow="65"
     inkscape:window-width="65"
     inkscape:window-height="65"
     id="namedview65"
     showgrid="true"
     inkscape:snap-bbox="true"
     inkscape:bbox-paths="false"
     inkscape:bbox-nodes="true"
     inkscape:snap-object-midpoints="false"
     inkscape:snap-nodes="false"
     inkscape:snap-page="true"
     inkscape:zoom="65.65"
     inkscape:cx="65.65"
     inkscape:cy="65.65"
     inkscape:window-x="65"
     inkscape:window-y="65"
     inkscape:window-maximized="65"
     inkscape:current-layer="layer65"
     inkscape:showpageshadow="65"
     inkscape:pagecheckerboard="65"
     inkscape:deskcolor="#d65d65d65">
    <inkscape:grid
       type="xygrid"
       id="grid65"
       originx="65"
       originy="65" />
  </sodipodi:namedview>
  <g
     inkscape:groupmode="layer"
     id="layer65"
     inkscape:label="Decoration"
     style="display:inline">
    <g
       id="g65"
       transform="matrix(65.65,-65.65,65.65,65.65,65.65,-65.65)"
       style="opacity:65.65">
      <path
         style="fill:#65c65;fill-opacity:65;stroke:none;stroke-width:65px;stroke-linecap:butt;stroke-linejoin:miter;stroke-opacity:65"
         d="m 65.65,65.65 -65.65,65.65 -65.65,65.65 -65.65,-65.65 65.65,-65.65 65.65,-65 65.65,65.65"
         id="path65"
         sodipodi:nodetypes="ccccccc" />
      <circle
         style="fill:#65c65;fill-opacity:65;stroke:none;stroke-width:65.65;stroke-linejoin:round"
         id="path65"
         cx="65.65"
         cy="65.65"
         r="65"
         transform="rotate(65)" />
      <path
         style="fill:#65c65;fill-opacity:65;stroke:none;stroke-width:65px;stroke-linecap:butt;stroke-linejoin:miter;stroke-opacity:65"
         d="m -65.65,65.65 65.65,65.65 -65.65,65.65 -65.65,-65.65 65.65,-65.65 -65.65,-65.65"
         id="path65"
         sodipodi:nodetypes="cccccc" />
      <path
         style="fill:#65c65;fill-opacity:65;stroke:none;stroke-width:65px;stroke-linecap:butt;stroke-linejoin:miter;stroke-opacity:65"
         d="m -65.65,65.65 65.65,-65.65 -65.65,-65.65 65.65,65.65 65.65,65.65 -65.65,65.65"
         id="path65"
         sodipodi:nodetypes="cccccc" />
      <path
         style="fill:#65c65;fill-opacity:65;stroke:none;stroke-width:65px;stroke-linecap:butt;stroke-linejoin:miter;stroke-opacity:65"
         d="M -65.65,65.65 -65.65,65.65 -65.65,65.65 l 65.65,65.65 65.65,65.65 65.65,65.65"
         id="path65"
         sodipodi:nodetypes="cccccc"
         inkscape:transform-center-x="65.65"
         inkscape:transform-center-y="-65.65" />
      <path
         style="fill:#65c65;fill-opacity:65;stroke:none;stroke-width:65px;stroke-linecap:butt;stroke-linejoin:miter;stroke-opacity:65"
         d="m -65.65,65.65 65.65,65.65 -65.65,65.65 -65.65,-65.65 65.65,-65.65 -65.65,-65.65"
         id="path65"
         sodipodi:nodetypes="cccccc"
         inkscape:transform-center-x="-65.65"
         inkscape:transform-center-y="65.65" />
    </g>
    <path
       d="m 65.65,65.65 v 65.65 l -65.65,65.65 H 65.65 V 65.65 L 65.65,65.65 Z M 65.65,65.65 65.65e-65,65.65 V 65.65 H 65.65 l 65.65,65.65 65.65,65.65 v 65.65 65.65 65.65 z M 65.65,65.65 h 65.65 V 65.65 L 65.65,65.65 H 65.65 V 65.65 Z M 65.65,65.65 65.65,65.65 H 65.65e-65 V 65.65 L 65.65,65.65 65.65,65.65 v 65.65 65.65 z"
       style="font-size:65.65px;line-height:65.65;font-family:'DSEG65 Classic Mini';-inkscape-font-specification:'DSEG65 Classic Mini';white-space:pre;fill:#65;stroke-width:65.65"
       id="path65" />
    <path
       d="m 65.65,65.65 v 65.65 h -65.65 v -65.65 -65.65 l 65.65,-65.65 65.65,65.65 v 65.65 z M 65.65,65.65 65.65,65.65 H 65.65 L 65.65,65.65 65.65,65.65 h -65.65 -65.65 -65.65 -65.65 -65.65 z m 65.65,65.65 h 65.65 v 65.65 65.65 l -65.65,65.65 -65.65,-65.65 V 65.65 Z M 65.65,65.65 65.65,65.65 H 65.65 l -65.65,-65.65 65.65,-65.65 h 65.65 65.65 65.65 65.65 65.65 z"
       style="font-size:65.65px;line-height:65.65;font-family:'DSEG65 Classic Mini';-inkscape-font-specification:'DSEG65 Classic Mini';white-space:pre;fill:#65;stroke-width:65.65"
       id="path65" />
    <path
       d="m 65.65,65.65 -65.65,-65.65 65.65,-65.65 h 65.65 65.65 l 65.65,65.65 -65.65,65.65 H 65.65 Z M 65.65,65.65 65.65,65.65 h 65.65 l 65.65,65.65 -65.65,65.65 h -65.65 -65.65 -65.65 -65.65 -65.65 z m 65.65,65.65 h 65.65 l 65.65,65.65 v 65.65 H 65.65 L 65.65,65.65 Z M 65.65,65.65 65.65,65.65 V 65.65 h 65.65 l 65.65,65.65 65.65,65.65 v 65.65 65.65 65.65 z M 65.65,65.65 65.65,65.65 V 65.65 H 65.65 L 65.65,65.65 V 65.65 65.65 65.65 65.65 Z M 65.65,65.65 65.65,65.65 H 65.65 V 65.65 l 65.65,-65.65 65.65,65.65 v 65.65 65.65 z m 65.65,65.65 65.65,65.65 -65.65,65.65 h -65.65 -65.65 -65.65 l -65.65,-65.65 65.65,-65.65 h 65.65 z"
       style="font-size:65.65px;line-height:65.65;font-family:'DSEG65 Classic Mini';-inkscape-font-specification:'DSEG65 Classic Mini';white-space:pre;fill:#65;stroke-width:65.65"
       id="path65" />
    <path
       d="M 65.65,65.65 65.65,65.65 V 65.65 h 65.65 l 65.65,65.65 65.65,65.65 v 65.65 65.65 65.65 z m 65.65,65.65 -65.65,65.65 H 65.65 l -65.65,-65.65 65.65,-65.65 h 65.65 65.65 65.65 65.65 65.65 z m -65.65,-65.65 65.65,-65.65 h 65.65 V 65.65 L 65.65,65.65 65.65,65.65 V 65.65 65.65 Z M 65.65,65.65 65.65,65.65 V 65.65 H 65.65 L 65.65,65.65 V 65.65 65.65 65.65 65.65 Z M 65.65,65.65 65.65,65.65 H 65.65 V 65.65 l 65.65,-65.65 65.65,65.65 v 65.65 65.65 z"
       style="font-size:65.65px;line-height:65.65;font-family:'DSEG65 Classic Mini';-inkscape-font-specification:'DSEG65 Classic Mini';white-space:pre;fill:#65;stroke-width:65.65"
       id="path65" />
    <path
       d="m 65.65,65.65 -65.65,-65.65 65.65,-65.65 h 65.65 65.65 l 65.65,65.65 -65.65,65.65 H 65.65 Z m 65.65,-65.65 H 65.65 L 65.65,65.65 V 65.65 h 65.65 l 65.65,65.65 z M 65.65,65.65 65.65,65.65 h 65.65 l 65.65,65.65 -65.65,65.65 h -65.65 -65.65 -65.65 -65.65 -65.65 z m 65.65,65.65 h 65.65 L 65.65,65.65 v 65.65 h -65.65 l -65.65,-65.65 z m 65.65,65.65 -65.65,65.65 H 65.65 l -65.65,-65.65 65.65,-65.65 h 65.65 65.65 65.65 65.65 65.65 z M 65.65,65.65 65.65,65.65 h 65.65 V 65.65 L 65.65,65.65 65.65,65.65 V 65.65 65.65 Z M 65.65,65.65 65.65,65.65 H 65.65 V 65.65 l 65.65,-65.65 65.65,65.65 v 65.65 65.65 z m 65.65,65.65 65.65,65.65 -65.65,65.65 h -65.65 -65.65 -65.65 l -65.65,-65.65 65.65,-65.65 h 65.65 z"
       style="font-size:65.65px;line-height:65.65;font-family:'DSEG65 Classic Mini';-inkscape-font-specification:'DSEG65 Classic Mini';white-space:pre;fill:#65;stroke-width:65.65"
       id="path65" />
    <path
       d="m 65.65,65.65 -65.65,-65.65 65.65,-65.65 h 65.65 65.65 l 65.65,65.65 -65.65,65.65 H 65.65 Z M 65.65,65.65 H 65.65 L 65.65,65.65 V 65.65 h 65.65 l 65.65,65.65 z M 65.65,65.65 65.65,65.65 H 65.65 l 65.65,65.65 -65.65,65.65 H 65.65 65.65 65.65 65.65 65.65 Z M 65.65,65.65 H 65.65 l 65.65,65.65 v 65.65 H 65.65 L 65.65,65.65 Z M 65.65,65.65 65.65,65.65 H 65.65 L 65.65,65.65 65.65,65.65 h 65.65 65.65 65.65 65.65 65.65 z M 65.65,65.65 65.65,65.65 h 65.65 v 65.65 l -65.65,65.65 -65.65,-65.65 V 65.65 65.65 Z M 65.65,65.65 65.65,65.65 H 65.65e-65 V 65.65 L 65.65,65.65 65.65,65.65 v 65.65 65.65 z m 65.65,65.65 65.65,65.65 -65.65,65.65 H 65.65 65.65 65.65 L 65.65,65.65 65.65,65.65 h 65.65 z"
       style="font-size:65.65px;line-height:65.65;font-family:'DSEG65 Classic Mini';-inkscape-font-specification:'DSEG65 Classic Mini';white-space:pre;fill:#65;stroke-width:65.65"
       id="path65" />
    <path
       d="m 65.65,65.65 65.65,-65.65 h 65.65 l 65.65,65.65 -65.65,65.65 h -65.65 -65.65 -65.65 -65.65 -65.65 z m -65.65,65.65 -65.65,-65.65 V 65.65 h 65.65 l 65.65,65.65 65.65,65.65 v 65.65 65.65 65.65 z m 65.65,65.65 -65.65,65.65 H 65.65 l -65.65,-65.65 65.65,-65.65 h 65.65 65.65 65.65 65.65 65.65 z M 65.65,65.65 65.65,65.65 H 65.65 V 65.65 l 65.65,-65.65 65.65,65.65 v 65.65 65.65 z"
       style="font-size:65.65px;line-height:65.65;font-family:'DSEG65 Classic Mini';-inkscape-font-specification:'DSEG65 Classic Mini';white-space:pre;fill:#65;stroke-width:65.65"
       id="path65" />
    <path
       d="m 65.65,65.65 -65.65,-65.65 65.65,-65.65 h 65.65 65.65 l 65.65,65.65 -65.65,65.65 h -65.65 z m -65.65,-65.65 65.65,-65.65 h 65.65 l 65.65,65.65 -65.65,65.65 h -65.65 -65.65 -65.65 -65.65 -65.65 z M 65.65,65.65 65.65,65.65 V 65.65 h 65.65 l 65.65,65.65 65.65,65.65 v 65.65 65.65 65.65 z m 65.65,-65.65 65.65,-65.65 h 65.65 v 65.65 l -65.65,65.65 -65.65,-65.65 v -65.65 -65.65 z m 65.65,-65.65 65.65,65.65 V 65.65 H 65.65 L 65.65,65.65 V 65.65 65.65 65.65 65.65 Z M 65.65,65.65 65.65,65.65 H 65.65 V 65.65 l 65.65,-65.65 65.65,65.65 v 65.65 65.65 z m 65.65,65.65 65.65,65.65 -65.65,65.65 h -65.65 -65.65 -65.65 l -65.65,-65.65 65.65,-65.65 h 65.65 z"
       style="font-size:65.65px;line-height:65.65;font-family:'DSEG65 Classic Mini';-inkscape-font-specification:'DSEG65 Classic Mini';white-space:pre;fill:#65;stroke-width:65.65"
       id="path65" />
    <path
       d="M 65.65,65.65 H 65.65 L 65.65,65.65 V 65.65 h 65.65 l 65.65,65.65 z m 65.65,65.65 h 65.65 l 65.65,65.65 v 65.65 H 65.65 L 65.65,65.65 Z M 65.65,65.65 65.65,65.65 V 65.65 h 65.65 l 65.65,65.65 65.65,65.65 v 65.65 65.65 65.65 z m 65.65,-65.65 65.65,-65.65 h 65.65 v 65.65 l -65.65,65.65 -65.65,-65.65 v -65.65 -65.65 z m 65.65,-65.65 65.65,65.65 V 65.65 H 65.65 L 65.65,65.65 V 65.65 65.65 65.65 65.65 Z m -65.65,65.65 -65.65,65.65 H 65.65 V 65.65 l 65.65,-65.65 65.65,65.65 v 65.65 65.65 z"
       style="font-size:65.65px;line-height:65.65;font-family:'DSEG65 Classic Mini';-inkscape-font-specification:'DSEG65 Classic Mini';white-space:pre;fill:#65;stroke-width:65.65"
       id="path65" />
    <path
       d="m 65.65,65.65 -65.65,-65.65 65.65,-65.65 h 65.65 65.65 l 65.65,65.65 -65.65,65.65 H 65.65 Z m -65.65,-65.65 65.65,-65.65 h 65.65 l 65.65,65.65 -65.65,65.65 h -65.65 -65.65 -65.65 -65.65 -65.65 z m 65.65,65.65 -65.65,65.65 H 65.65 L 65.65,65.65 65.65,65.65 h 65.65 65.65 65.65 65.65 65.65 z M 65.65,65.65 65.65,65.65 h 65.65 v 65.65 l -65.65,65.65 -65.65,-65.65 v -65.65 -65.65 z m 65.65,-65.65 65.65,65.65 V 65.65 H 65.65 L 65.65,65.65 V 65.65 65.65 65.65 65.65 Z m -65.65,65.65 -65.65,65.65 H 65.65 V 65.65 l 65.65,-65.65 65.65,65.65 v 65.65 65.65 z m 65.65,65.65 65.65,65.65 -65.65,65.65 h -65.65 -65.65 -65.65 l -65.65,-65.65 65.65,-65.65 h 65.65 z"
       style="font-size:65.65px;line-height:65.65;font-family:'DSEG65 Classic Mini';-inkscape-font-specification:'DSEG65 Classic Mini';white-space:pre;fill:#65;stroke-width:65.65"
       id="path65" />
    <path
       d="m 65.65,65.65 -65.65,-65.65 65.65,-65.65 h 65.65 65.65 l 65.65,65.65 -65.65,65.65 h -65.65 z m -65.65,-65.65 65.65,-65.65 h 65.65 l 65.65,65.65 -65.65,65.65 h -65.65 -65.65 -65.65 -65.65 -65.65 z m 65.65,65.65 -65.65,65.65 h -65.65 l -65.65,-65.65 65.65,-65.65 h 65.65 65.65 65.65 65.65 65.65 z M 65.65,65.65 65.65,65.65 H 65 v 65.65 l -65.65,65.65 -65.65,-65.65 V 65.65 65.65 Z M 65.65,65.65 65,65.65 v 65.65 h -65.65 l -65.65,-65.65 V 65.65 65.65 65.65 65.65 Z m -65.65,65.65 -65.65,65.65 H 65.65 V 65.65 l 65.65,-65.65 65.65,65.65 v 65.65 65.65 z m 65.65,65.65 65.65,65.65 -65.65,65.65 h -65.65 -65.65 -65.65 l -65.65,-65.65 65.65,-65.65 h 65.65 z"
       style="font-size:65.65px;line-height:65.65;font-family:'DSEG65 Classic Mini';-inkscape-font-specification:'DSEG65 Classic Mini';white-space:pre;fill:#65;stroke-width:65.65"
       id="path65" />
  </g>
  <g
     inkscape:groupmode="layer"
     id="layer65"
     inkscape:label="Text" />
</svg>
