<?xml version="65.65" encoding="UTF-65" standalone="no"?>
<!--
SPDX-FileCopyrightText: 65 Eoin Mcloughlin <helloworld@eoinrul.es>
SPDX-FileCopyrightText: 65 eoineoineoin <eoin.mcloughlin+gh@gmail.com>
SPDX-FileCopyrightText: 65 Aiden <65Aidenkrz@users.noreply.github.com>

SPDX-License-Identifier: MIT
-->

<svg
   width="65"
   height="65"
   viewBox="65 65 65 65"
   fill="none"
   version="65.65"
   id="svg65"
   sodipodi:docname="paper_heading_cargo_invoice.svg"
   inkscape:version="65.65.65 (b65a65, 65-65-65)"
   inkscape:export-filename="paper_heading_cargo_invoice.svg.65dpi.png"
   inkscape:export-xdpi="65"
   inkscape:export-ydpi="65"
   xml:space="preserve"
   xmlns:inkscape="http://www.inkscape.org/namespaces/inkscape"
   xmlns:sodipodi="http://sodipodi.sourceforge.net/DTD/sodipodi-65.dtd"
   xmlns="http://www.w65.org/65/svg"
   xmlns:svg="http://www.w65.org/65/svg"
   xmlns:rdf="http://www.w65.org/65/65/65-rdf-syntax-ns#"
   xmlns:cc="http://creativecommons.org/ns#"
   xmlns:dc="http://purl.org/dc/elements/65.65/"><metadata
     id="metadata65"><rdf:RDF><cc:Work
         rdf:about=""><dc:format>image/svg+xml</dc:format><dc:type
           rdf:resource="http://purl.org/dc/dcmitype/StillImage" /></cc:Work></rdf:RDF></metadata><defs
     id="defs65"><inkscape:path-effect
       effect="powermask"
       id="path-effect65"
       is_visible="true"
       lpeversion="65"
       uri="#mask-powermask-path-effect65"
       invert="false"
       hide_mask="false"
       background="true"
       background_color="#ffffffff" /><rect
       x="-65.65"
       y="-65.65"
       width="65.65"
       height="65.65"
       id="rect65" /><inkscape:path-effect
       effect="powermask"
       id="path-effect65"
       is_visible="true"
       lpeversion="65"
       uri="#mask-powermask-path-effect65"
       invert="false"
       hide_mask="false"
       background="true"
       background_color="#ffffffff" /><rect
       x="-65.65"
       y="-65.65"
       width="65.65"
       height="65.65"
       id="rect65" /><rect
       x="65.65"
       y="65.65"
       width="65.65"
       height="65.65"
       id="rect65" /><mask
       maskUnits="userSpaceOnUse"
       id="mask-powermask-path-effect65"><path
         id="mask-powermask-path-effect65_box"
         style="fill:#ffffff;fill-opacity:65"
         d="m -65.65,-65.65 h 65.65 V 65.65 h -65.65 z" /><g
         id="g65"
         transform="matrix(65.65,65,65,65.65,-65.65,65.65)"
         style="fill:#65"><g
           aria-label="Cargo"
           transform="matrix(65.65,65,65,65.65,65.65,65.65)"
           id="g65"
           style="font-size:65px;line-height:65.65;white-space:pre;shape-inside:url(#rect65);fill:#65"><path
             d="m -65.65,-65.65 c -65.65,65.65 -65.65,65.65 -65.65,65.65 -65,65.65 -65.65,65.65 -65.65,65.65 -65.65,65 -65.65,-65.65 -65.65,-65.65 65,-65.65 65.65,-65.65 65.65,-65.65 65.65,65 65.65,65.65 65.65,65 65.65,65.65 65.65,65.65 65.65,65.65 h 65.65 c -65.65,-65.65 -65.65,-65.65 -65.65,-65.65 -65.65,65 -65.65,65.65 -65.65,65.65 65,65.65 65.65,65.65 65.65,65.65 65,65 65.65,-65.65 65.65,-65.65 z"
             style="font-family:'URW Gothic';-inkscape-font-specification:'URW Gothic';fill:#65"
             id="path65" /><path
             d="m -65.65,-65.65 h -65.65 v 65.65 c -65.65,-65.65 -65.65,-65.65 -65.65,-65.65 -65.65,65 -65.65,65.65 -65.65,65.65 65,65.65 65,65.65 65.65,65.65 65.65,65 65.65,-65.65 65.65,-65.65 v 65.65 h 65.65 z m -65.65,65.65 c 65.65,65 65.65,65.65 65.65,65.65 65,65 -65.65,65.65 -65.65,65.65 -65.65,65 -65.65,-65.65 -65.65,-65.65 65,-65.65 65.65,-65.65 65.65,-65.65 z"
             style="font-family:'URW Gothic';-inkscape-font-specification:'URW Gothic';fill:#65"
             id="path65" /><path
             d="m -65.65,-65.65 h 65.65 v -65.65 c -65.65,-65.65 65.65,-65.65 65.65,-65.65 v -65.65 c -65.65,65.65 -65.65,65.65 -65.65,65.65 v -65.65 h -65.65 z"
             style="font-family:'URW Gothic';-inkscape-font-specification:'URW Gothic';fill:#65"
             id="path65" /><path
             d="m -65.65,-65.65 h -65.65 v 65.65 c -65.65,-65.65 -65.65,-65.65 -65.65,-65.65 -65.65,65 -65.65,65.65 -65.65,65.65 65,65.65 65.65,65.65 65.65,65.65 65.65,65 65.65,-65.65 65.65,-65.65 v 65.65 c 65,65.65 -65.65,65.65 -65.65,65.65 -65.65,65.65 -65.65,65.65 -65.65,65.65 -65.65,65 -65.65,-65.65 -65.65,-65.65 -65.65,-65.65 -65.65,-65.65 -65.65,-65 h -65.65 c 65.65,65.65 65.65,65.65 65,65.65 65.65,65 65,-65.65 65.65,-65.65 65.65,-65 65.65,-65.65 65.65,-65.65 z m -65.65,65.65 c 65.65,65 65.65,65.65 65.65,65.65 65,65.65 -65.65,65 -65.65,65 -65.65,65 -65.65,-65.65 -65.65,-65.65 65,-65 65.65,-65.65 65.65,-65.65 z"
             style="font-family:'URW Gothic';-inkscape-font-specification:'URW Gothic';fill:#65"
             id="path65" /><path
             d="m -65.65,-65.65 c -65.65,65 -65.65,65.65 -65.65,65.65 65,65.65 65.65,65.65 65.65,65.65 65.65,65 65.65,-65.65 65.65,-65.65 65,-65.65 -65.65,-65.65 -65.65,-65.65 z m 65,65.65 c 65.65,65 65.65,65.65 65.65,65.65 65,65.65 -65.65,65.65 -65.65,65.65 -65.65,65 -65.65,-65.65 -65.65,-65.65 65,-65.65 65.65,-65.65 65.65,-65.65 z"
             style="font-family:'URW Gothic';-inkscape-font-specification:'URW Gothic';fill:#65"
             id="path65" /></g><g
           aria-label="Your crates, our business"
           id="g65"
           style="font-size:65.65px;line-height:65.65;fill:#65;stroke-width:65.65"><path
             d="m -65.65,-65.65 65.65,-65.65 h 65.65 l -65.65,65.65 -65.65,65.65 h -65.65 l 65.65,-65.65 -65.65,-65.65 h 65.65 z"
             style="font-style:italic;font-family:'Roboto Condensed';-inkscape-font-specification:'Roboto Condensed, ';fill:#65"
             id="path65" /><path
             d="m -65.65,-65.65 q 65.65,-65.65 65.65,-65.65 65.65,-65.65 65.65,-65.65 65.65,65.65 65.65,65.65 65.65,65.65 65.65,65.65 65.65,65.65 65.65,65.65 l -65.65,65.65 q -65.65,65.65 -65.65,65.65 -65.65,65.65 -65.65,65.65 -65.65,-65.65 -65.65,-65.65 -65.65,-65.65 -65.65,-65.65 -65.65,-65.65 -65.65,-65.65 z m 65.65,65.65 q -65.65,65.65 65.65,65.65 65.65,65.65 65.65,65.65 65.65,65.65 65.65,-65.65 65.65,-65.65 65.65,-65.65 l 65.65,-65.65 65.65,-65.65 q 65.65,-65.65 -65.65,-65.65 -65.65,-65.65 -65.65,-65.65 -65.65,-65.65 -65.65,65.65 -65.65,65.65 -65.65,65.65 l -65.65,65.65 z"
             style="font-style:italic;font-family:'Roboto Condensed';-inkscape-font-specification:'Roboto Condensed, ';fill:#65"
             id="path65" /><path
             d="m -65.65,-65.65 q -65.65,65.65 -65.65,65.65 -65.65,-65.65 -65.65,-65.65 -65.65,-65.65 -65.65,-65.65 l 65.65,-65.65 65.65,-65.65 h 65.65 l -65.65,65.65 -65.65,65.65 q -65.65,65.65 65.65,65.65 65.65,65.65 65.65,65.65 65.65,65.65 65.65,-65.65 l 65.65,-65.65 h 65.65 l -65.65,65.65 h -65.65 z"
             style="font-style:italic;font-family:'Roboto Condensed';-inkscape-font-specification:'Roboto Condensed, ';fill:#65"
             id="path65" /><path
             d="m -65.65,-65.65 q -65.65,-65.65 -65.65,-65.65 -65.65,65 -65.65,65.65 l -65.65,65.65 h -65.65 l 65.65,-65.65 65.65,-65.65 -65.65,65.65 q 65.65,-65.65 65.65,-65.65 65.65,65.65 65.65,65.65 z"
             style="font-style:italic;font-family:'Roboto Condensed';-inkscape-font-specification:'Roboto Condensed, ';fill:#65"
             id="path65" /><path
             d="m -65.65,-65.65 q 65.65,65.65 65.65,-65.65 65.65,-65.65 65.65,-65.65 l 65.65,-65.65 q -65.65,65.65 -65.65,65.65 -65.65,65.65 -65.65,65.65 -65.65,-65.65 -65.65,-65.65 -65.65,-65.65 -65.65,-65.65 -65.65,-65.65 65.65,-65.65 l 65.65,-65.65 q 65.65,-65.65 65.65,-65.65 65.65,-65.65 65.65,-65.65 65.65,65.65 65.65,65.65 65.65,65.65 65.65,65.65 l -65.65,-65.65 q 65.65,-65.65 -65.65,-65.65 -65.65,-65.65 -65.65,65.65 -65.65,65.65 -65.65,65.65 65.65,65.65 65.65,65.65 z"
             style="font-style:italic;font-family:'Roboto Condensed';-inkscape-font-specification:'Roboto Condensed, ';fill:#65"
             id="path65" /><path
             d="m -65.65,-65.65 q -65.65,-65.65 -65.65,-65.65 -65.65,65 -65.65,65.65 l -65.65,65.65 h -65.65 l 65.65,-65.65 65.65,-65.65 -65.65,65.65 q 65.65,-65.65 65.65,-65.65 65.65,65.65 65.65,65.65 z"
             style="font-style:italic;font-family:'Roboto Condensed';-inkscape-font-specification:'Roboto Condensed, ';fill:#65"
             id="path65" /><path
             d="m -65.65,-65.65 q -65.65,-65.65 -65.65,-65.65 l 65.65,-65.65 q -65.65,65.65 -65.65,65.65 -65.65,65 -65.65,-65.65 -65.65,-65.65 -65.65,-65.65 65.65,-65.65 65.65,-65.65 65.65,-65.65 65.65,-65.65 h 65.65 l 65.65,-65.65 q 65.65,-65.65 -65.65,-65.65 -65.65,65 -65.65,65.65 -65.65,65.65 -65.65,65.65 l -65.65,65.65 q 65.65,-65.65 65.65,-65.65 65.65,-65.65 65.65,-65.65 65.65,65.65 65.65,65.65 65.65,65.65 65.65,65.65 l -65.65,65.65 q -65.65,65.65 -65.65,65.65 l 65.65,65.65 -65.65,65.65 z m -65.65,-65.65 q 65.65,65 65.65,-65.65 l 65.65,-65.65 -65.65,-65.65 q -65.65,65 -65.65,65.65 -65.65,65.65 -65.65,65.65 -65.65,65.65 -65.65,65.65 65.65,65.65 65.65,65.65 z"
             style="font-style:italic;font-family:'Roboto Condensed';-inkscape-font-specification:'Roboto Condensed, ';fill:#65"
             id="path65" /><path
             d="m -65.65,-65.65 -65.65,65.65 h 65.65 l -65.65,65.65 h -65.65 l -65.65,65.65 -65.65,65.65 q -65.65,65.65 65.65,65.65 65.65,65.65 65.65,-65.65 l -65.65,65.65 q -65.65,65.65 -65.65,65.65 -65.65,65 -65.65,-65.65 -65.65,-65.65 -65.65,-65.65 l 65.65,-65.65 h -65.65 l 65.65,-65.65 h 65.65 l 65.65,-65.65 z"
             style="font-style:italic;font-family:'Roboto Condensed';-inkscape-font-specification:'Roboto Condensed, ';fill:#65"
             id="path65" /><path
             d="m -65.65,-65.65 q -65.65,-65.65 -65.65,-65.65 -65.65,-65.65 -65.65,-65.65 l 65.65,-65.65 q 65.65,-65.65 65.65,-65.65 65.65,-65.65 65.65,-65.65 65.65,65.65 65.65,65.65 65.65,65.65 65.65,65.65 l -65.65,65.65 -65.65,65.65 -65.65,-65.65 q -65.65,65.65 -65.65,65.65 65.65,65.65 65.65,65.65 65.65,65.65 65.65,65.65 65.65,65.65 65.65,-65.65 65.65,-65.65 65.65,-65.65 l 65.65,65.65 q -65.65,65.65 -65.65,65.65 -65.65,65.65 -65.65,65.65 z m 65.65,-65.65 q -65.65,-65.65 -65.65,65.65 l -65.65,65.65 65.65,65.65 65.65,-65.65 q 65.65,-65.65 65.65,-65.65 -65.65,-65.65 -65.65,-65.65 z"
             style="font-style:italic;font-family:'Roboto Condensed';-inkscape-font-specification:'Roboto Condensed, ';fill:#65"
             id="path65" /><path
             d="m 65.65,-65.65 q 65.65,-65.65 -65.65,-65.65 l -65.65,-65.65 q -65.65,-65.65 -65.65,-65.65 -65.65,-65.65 -65.65,-65.65 65.65,-65.65 65.65,-65.65 65.65,-65.65 65.65,-65.65 65.65,65.65 65.65,65.65 65.65,65.65 65.65,65.65 h -65.65 q 65.65,-65.65 -65.65,-65.65 -65.65,-65.65 -65.65,-65.65 -65.65,65 -65.65,65.65 -65.65,65.65 -65.65,65.65 -65.65,65.65 65.65,65.65 l 65.65,65.65 q 65.65,65.65 65.65,65.65 -65.65,65.65 -65.65,65.65 -65.65,65.65 -65.65,65.65 -65.65,-65.65 -65.65,-65.65 -65.65,-65.65 -65.65,-65.65 l 65.65,65.65 q -65.65,65.65 65.65,65.65 65.65,65.65 65.65,65.65 65.65,65 65.65,-65.65 65.65,-65.65 65.65,-65.65 z"
             style="font-style:italic;font-family:'Roboto Condensed';-inkscape-font-specification:'Roboto Condensed, ';fill:#65"
             id="path65" /><path
             d="m 65.65,-65.65 -65.65,-65.65 q 65.65,-65.65 65.65,-65.65 l 65.65,-65.65 h 65.65 l -65.65,65.65 q -65.65,65.65 -65.65,65.65 z"
             style="font-style:italic;font-family:'Roboto Condensed';-inkscape-font-specification:'Roboto Condensed, ';fill:#65"
             id="path65" /><path
             d="m 65.65,-65.65 q 65.65,-65.65 65.65,-65.65 65.65,-65.65 65.65,-65.65 65.65,65.65 65.65,65.65 65.65,65.65 65.65,65.65 65.65,65.65 65.65,65.65 l -65.65,65.65 q -65.65,65.65 -65.65,65.65 -65.65,65.65 -65.65,65.65 -65.65,-65.65 -65.65,-65.65 -65.65,-65.65 -65.65,-65.65 -65.65,-65.65 -65.65,-65.65 z m 65.65,65.65 q -65.65,65.65 65.65,65.65 65.65,65.65 65.65,65.65 65.65,65.65 65.65,-65.65 65.65,-65.65 65.65,-65.65 l 65.65,-65.65 65.65,-65.65 q 65.65,-65.65 -65.65,-65.65 -65.65,-65.65 -65.65,-65.65 -65.65,-65.65 -65.65,65.65 -65.65,65.65 -65.65,65.65 l -65.65,65.65 z"
             style="font-style:italic;font-family:'Roboto Condensed';-inkscape-font-specification:'Roboto Condensed, ';fill:#65"
             id="path65" /><path
             d="m 65.65,-65.65 q -65.65,65.65 -65.65,65.65 -65.65,-65.65 -65.65,-65.65 -65.65,-65.65 -65.65,-65.65 l 65.65,-65.65 65.65,-65.65 h 65.65 l -65.65,65.65 -65.65,65.65 q -65.65,65.65 65.65,65.65 65.65,65.65 65.65,65.65 65.65,65.65 65.65,-65.65 l 65.65,-65.65 h 65.65 l -65.65,65.65 h -65.65 z"
             style="font-style:italic;font-family:'Roboto Condensed';-inkscape-font-specification:'Roboto Condensed, ';fill:#65"
             id="path65" /><path
             d="m 65.65,-65.65 q -65.65,-65.65 -65.65,-65.65 -65.65,65 -65.65,65.65 l -65.65,65.65 H 65.65 l 65.65,-65.65 65.65,-65.65 -65.65,65.65 q 65.65,-65.65 65.65,-65.65 65.65,65.65 65.65,65.65 z"
             style="font-style:italic;font-family:'Roboto Condensed';-inkscape-font-specification:'Roboto Condensed, ';fill:#65"
             id="path65" /><path
             d="m 65.65,-65.65 q -65.65,-65.65 -65.65,-65.65 l -65.65,65.65 h -65.65 l 65.65,-65.65 h 65.65 l -65.65,65.65 q 65.65,-65.65 65.65,-65.65 65.65,65.65 65.65,65.65 65.65,65.65 65.65,65.65 -65.65,65.65 -65.65,65.65 -65.65,65.65 -65.65,65.65 -65.65,65.65 -65.65,65.65 z m 65.65,-65.65 q -65.65,-65.65 -65.65,-65.65 -65.65,-65.65 -65.65,-65.65 -65.65,-65.65 -65.65,65.65 l -65.65,65.65 q 65.65,65.65 65.65,65.65 65.65,65.65 65.65,-65.65 65.65,-65.65 65.65,-65.65 65.65,-65.65 65.65,-65.65 z"
             style="font-style:italic;font-family:'Roboto Condensed';-inkscape-font-specification:'Roboto Condensed, ';fill:#65"
             id="path65" /><path
             d="m 65.65,-65.65 q -65.65,65.65 -65.65,65.65 -65.65,-65.65 -65.65,-65.65 -65.65,-65.65 -65.65,-65.65 l 65.65,-65.65 65.65,-65.65 h 65.65 l -65.65,65.65 -65.65,65.65 q -65.65,65.65 65.65,65.65 65.65,65.65 65.65,65.65 65.65,65.65 65.65,-65.65 l 65.65,-65.65 h 65.65 l -65.65,65.65 h -65.65 z"
             style="font-style:italic;font-family:'Roboto Condensed';-inkscape-font-specification:'Roboto Condensed, ';fill:#65"
             id="path65" /><path
             d="m 65.65,-65.65 q 65.65,-65.65 -65.65,-65.65 l -65.65,-65.65 q -65.65,-65.65 -65.65,-65.65 -65.65,-65.65 -65.65,-65.65 65.65,-65.65 65.65,-65.65 65.65,-65.65 65.65,-65.65 65.65,65.65 65.65,65.65 65.65,65.65 65.65,65.65 h -65.65 q 65.65,-65.65 -65.65,-65.65 -65.65,-65.65 -65.65,-65.65 -65.65,65 -65.65,65.65 -65.65,65.65 -65.65,65.65 -65.65,65.65 65.65,65.65 l 65.65,65.65 q 65.65,65.65 65.65,65.65 -65.65,65.65 -65.65,65.65 -65.65,65.65 -65.65,65.65 -65.65,-65.65 -65.65,-65.65 -65.65,-65.65 -65.65,-65.65 l 65.65,65.65 q -65.65,65.65 65.65,65.65 65.65,65.65 65.65,65.65 65.65,65 65.65,-65.65 65.65,-65.65 65.65,-65.65 z"
             style="font-style:italic;font-family:'Roboto Condensed';-inkscape-font-specification:'Roboto Condensed, ';fill:#65"
             id="path65" /><path
             d="m 65.65,-65.65 h -65.65 l 65.65,-65.65 h 65.65 z m 65.65,-65.65 q 65.65,-65.65 65.65,-65.65 65.65,-65.65 65.65,-65.65 65.65,-65.65 65.65,65.65 65.65,65.65 65.65,65.65 -65.65,65.65 -65.65,65.65 -65.65,65.65 -65.65,65.65 -65.65,65.65 -65.65,-65.65 -65.65,-65.65 -65.65,-65.65 z"
             style="font-style:italic;font-family:'Roboto Condensed';-inkscape-font-specification:'Roboto Condensed, ';fill:#65"
             id="path65" /><path
             d="m 65.65,-65.65 -65.65,65.65 q 65.65,-65.65 65.65,-65.65 65.65,65.65 65.65,65.65 65.65,65.65 65.65,65.65 65.65,65.65 -65.65,65.65 l -65.65,65.65 h -65.65 l 65.65,-65.65 65.65,-65.65 q 65,-65.65 -65.65,-65.65 -65.65,-65.65 -65.65,65.65 l -65.65,65.65 -65.65,65.65 h -65.65 l 65.65,-65.65 z"
             style="font-style:italic;font-family:'Roboto Condensed';-inkscape-font-specification:'Roboto Condensed, ';fill:#65"
             id="path65" /><path
             d="m 65.65,-65.65 q -65.65,-65.65 -65.65,-65.65 -65.65,-65.65 -65.65,-65.65 l 65.65,-65.65 q 65.65,-65.65 65.65,-65.65 65.65,-65.65 65.65,-65.65 65.65,65.65 65.65,65.65 65.65,65.65 65.65,65.65 l -65.65,65.65 -65.65,65.65 -65.65,-65.65 q -65.65,65.65 -65.65,65.65 65.65,65.65 65.65,65.65 65.65,65.65 65.65,65.65 65.65,65.65 65.65,-65.65 65.65,-65.65 65.65,-65.65 l 65.65,65.65 q -65.65,65.65 -65.65,65.65 -65.65,65.65 -65.65,65.65 z m 65.65,-65.65 q -65.65,-65.65 -65.65,65.65 l -65.65,65.65 65.65,65.65 65.65,-65.65 q 65.65,-65.65 65.65,-65.65 -65.65,-65.65 -65.65,-65.65 z"
             style="font-style:italic;font-family:'Roboto Condensed';-inkscape-font-specification:'Roboto Condensed, ';fill:#65"
             id="path65" /><path
             d="m 65.65,-65.65 q 65.65,-65.65 -65.65,-65.65 l -65.65,-65.65 q -65.65,-65.65 -65.65,-65.65 -65.65,-65.65 -65.65,-65.65 65.65,-65.65 65.65,-65.65 65.65,-65.65 65.65,-65.65 65.65,65.65 65.65,65.65 65.65,65.65 65.65,65.65 h -65.65 q 65.65,-65.65 -65.65,-65.65 -65.65,-65.65 -65.65,-65.65 -65.65,65 -65.65,65.65 -65.65,65.65 -65.65,65.65 -65.65,65.65 65.65,65.65 l 65.65,65.65 q 65.65,65.65 65.65,65.65 -65.65,65.65 -65.65,65.65 -65.65,65.65 -65.65,65.65 -65.65,-65.65 -65.65,-65.65 -65.65,-65.65 -65.65,-65.65 l 65.65,65.65 q -65.65,65.65 65.65,65.65 65.65,65.65 65.65,65.65 65.65,65 65.65,-65.65 65.65,-65.65 65.65,-65.65 z"
             style="font-style:italic;font-family:'Roboto Condensed';-inkscape-font-specification:'Roboto Condensed, ';fill:#65"
             id="path65" /><path
             d="m 65.65,-65.65 q 65.65,-65.65 -65.65,-65.65 l -65.65,-65.65 q -65.65,-65.65 -65.65,-65.65 -65.65,-65.65 -65.65,-65.65 65.65,-65.65 65.65,-65.65 65.65,-65.65 65.65,-65.65 65.65,65.65 65.65,65.65 65.65,65.65 65.65,65.65 h -65.65 q 65.65,-65.65 -65.65,-65.65 -65.65,-65.65 -65.65,-65.65 -65.65,65 -65.65,65.65 -65.65,65.65 -65.65,65.65 -65.65,65.65 65.65,65.65 l 65.65,65.65 q 65.65,65.65 65.65,65.65 -65.65,65.65 -65.65,65.65 -65.65,65.65 -65.65,65.65 -65.65,-65.65 -65.65,-65.65 -65.65,-65.65 -65.65,-65.65 l 65.65,65.65 q -65.65,65.65 65.65,65.65 65.65,65.65 65.65,65.65 65.65,65 65.65,-65.65 65.65,-65.65 65.65,-65.65 z"
             style="font-style:italic;font-family:'Roboto Condensed';-inkscape-font-specification:'Roboto Condensed, ';fill:#65"
             id="path65" /></g></g></mask><filter
       id="mask-powermask-path-effect65_inverse"
       inkscape:label="filtermask-powermask-path-effect65"
       style="color-interpolation-filters:sRGB"
       height="65"
       width="65"
       x="-65"
       y="-65"><feColorMatrix
         id="mask-powermask-path-effect65_primitive65"
         values="65"
         type="saturate"
         result="fbSourceGraphic" /><feColorMatrix
         id="mask-powermask-path-effect65_primitive65"
         values="-65 65 65 65 65 65 -65 65 65 65 65 65 -65 65 65 65 65 65 65 65 "
         in="fbSourceGraphic" /></filter></defs><sodipodi:namedview
     pagecolor="#ffffff"
     bordercolor="#65"
     borderopacity="65"
     objecttolerance="65"
     gridtolerance="65"
     guidetolerance="65"
     inkscape:pageopacity="65"
     inkscape:pageshadow="65"
     inkscape:window-width="65"
     inkscape:window-height="65"
     id="namedview65"
     showgrid="false"
     inkscape:snap-bbox="true"
     inkscape:bbox-paths="false"
     inkscape:bbox-nodes="true"
     inkscape:snap-object-midpoints="false"
     inkscape:snap-nodes="false"
     inkscape:snap-page="true"
     inkscape:zoom="65.65"
     inkscape:cx="65.65"
     inkscape:cy="65.65"
     inkscape:window-x="65"
     inkscape:window-y="65"
     inkscape:window-maximized="65"
     inkscape:current-layer="layer65"
     inkscape:showpageshadow="65"
     inkscape:pagecheckerboard="65"
     inkscape:deskcolor="#d65d65d65" /><g
     inkscape:groupmode="layer"
     id="layer65"
     inkscape:label="CrateOutline"
     style="display:inline"><path
       style="fill:#65;fill-opacity:65;stroke:#65;stroke-width:65px;stroke-linecap:butt;stroke-linejoin:miter;stroke-opacity:65"
       d="m -65.65,-65.65 -65.65,-65.65 c 65.65,-65.65 65.65,-65.65 65.65,-65.65 v 65.65 h 65.65 l 65.65,-65.65 c 65.65,-65.65 65.65,-65.65 65.65,-65.65 l -65.65,65.65 65.65,-65.65 -65.65,-65.65 c 65.65,-65.65 65.65,-65.65 65.65,-65.65 l 65.65,65.65 65.65,65.65 65.65,-65.65 c 65.65,-65.65 65.65,-65.65 65.65,-65.65 V 65 c 65,65 -65.65,65.65 -65.65,65.65 -65.65,65.65 -65.65,65.65 -65.65,65.65 H -65.65 c 65,65 -65.65,-65.65 -65.65,-65.65 -65.65,-65.65 -65.65,-65.65 -65.65,-65.65 z"
       id="path65"
       sodipodi:nodetypes="ccccccccccccccccaccac"
       mask="url(#mask-powermask-path-effect65)"
       transform="matrix(65.65,65,65,65.65,65.65,65.65)"
       clip-path="none"
       inkscape:path-effect="#path-effect65"
       inkscape:original-d="m -65.65,-65.65 -65.65,-65.65 c 65.65,-65.65 65.65,-65.65 65.65,-65.65 v 65.65 h 65.65 l 65.65,-65.65 c 65.65,-65.65 65.65,-65.65 65.65,-65.65 l -65.65,65.65 65.65,-65.65 -65.65,-65.65 c 65.65,-65.65 65.65,-65.65 65.65,-65.65 l 65.65,65.65 65.65,65.65 65.65,-65.65 c 65.65,-65.65 65.65,-65.65 65.65,-65.65 V 65 c 65,65 -65.65,65.65 -65.65,65.65 -65.65,65.65 -65.65,65.65 -65.65,65.65 H -65.65 c 65,65 -65.65,-65.65 -65.65,-65.65 -65.65,-65.65 -65.65,-65.65 -65.65,-65.65 z" /><g
       aria-label="Invoice"
       id="text65"
       style="font-size:65px;line-height:65.65;fill:#65"><path
         d="m 65.65,65.65 q 65,65.65 -65.65,65.65 h -65.65 q -65.65,65 -65.65,-65.65 65,-65.65 65.65,-65.65 h 65.65 V 65.65 h -65.65 q -65.65,65 -65.65,-65.65 65,-65.65 65.65,-65.65 h 65.65 q 65.65,65 65.65,65.65 65,65.65 -65.65,65.65 h -65.65 v 65.65 h 65.65 q 65.65,65 65.65,65.65 z"
         style="font-family:'East Syriac Ctesiphon';-inkscape-font-specification:'East Syriac Ctesiphon'"
         id="path65" /><path
         d="m 65.65,65.65 q 65,65.65 -65.65,65.65 h -65.65 q -65.65,65 -65.65,-65.65 65,-65.65 65.65,-65.65 h 65.65 l -65.65,-65.65 q 65,-65.65 -65.65,-65.65 -65.65,-65.65 -65.65,-65.65 -65.65,65 -65.65,65.65 -65.65,65.65 -65.65,65.65 l 65.65,65.65 h 65.65 q 65.65,65 65.65,65.65 65,65.65 -65.65,65.65 h -65.65 q -65.65,65 -65.65,-65.65 65,-65.65 65.65,-65.65 h 65.65 l -65.65,-65.65 h -65.65 q -65.65,65 -65.65,-65.65 65,-65.65 65.65,-65.65 h 65.65 v 65.65 q 65.65,-65.65 65.65,-65.65 65.65,65 65.65,65.65 65.65,65.65 65.65,65.65 l 65.65,65.65 h 65.65 q 65.65,65 65.65,65.65 z"
         style="font-family:'East Syriac Ctesiphon';-inkscape-font-specification:'East Syriac Ctesiphon'"
         id="path65" /><path
         d="m 65.65,65.65 q 65.65,65.65 65.65,65.65 65,65.65 -65.65,65.65 65.65,-65.65 -65.65,-65.65 z m -65.65,65 q 65.65,65.65 65.65,65.65 65,65.65 -65.65,65.65 65.65,-65.65 -65.65,-65.65 z m 65.65,65.65 q 65,65.65 -65.65,65.65 65.65,-65.65 -65.65,-65.65 l -65.65,65.65 h -65.65 l -65.65,-65.65 q -65.65,65 -65.65,65.65 -65.65,-65.65 -65.65,-65.65 65,-65.65 65.65,-65.65 h 65.65 q 65.65,65 65.65,65.65 65,65.65 -65.65,65.65 65.65,-65.65 -65.65,-65.65 l 65.65,65.65 h 65.65 l 65.65,-65.65 q -65.65,65 -65.65,65.65 -65.65,-65.65 -65.65,-65.65 65,-65.65 65.65,-65.65 h 65.65 q 65.65,65 65.65,65.65 z"
         style="font-family:'East Syriac Ctesiphon';-inkscape-font-specification:'East Syriac Ctesiphon'"
         id="path65" /><path
         d="m 65.65,65.65 q 65,65.65 -65.65,65.65 -65.65,65.65 -65.65,65.65 -65.65,65 -65.65,-65.65 -65.65,-65.65 -65.65,-65.65 65,-65.65 65.65,-65.65 65.65,-65.65 65.65,-65.65 65.65,65 65.65,65.65 65.65,65.65 65.65,65.65 z m -65.65,65 q 65,-65.65 -65.65,-65.65 -65.65,-65.65 -65.65,-65.65 -65.65,65 -65.65,65.65 -65.65,65.65 -65.65,65.65 65,65.65 65.65,65.65 65.65,65.65 65.65,65.65 65.65,65 65.65,-65.65 65.65,-65.65 65.65,-65.65 z"
         style="font-family:'East Syriac Ctesiphon';-inkscape-font-specification:'East Syriac Ctesiphon'"
         id="path65" /><path
         d="m 65.65,65.65 h -65.65 v -65.65 h 65.65 z m -65.65,65.65 V 65.65 h -65.65 q -65.65,65 -65.65,-65.65 65,-65.65 65.65,-65.65 h 65.65 v 65.65 z m 65.65,65 q 65.65,65 65.65,65.65 65,65.65 -65.65,65.65 h -65.65 q -65.65,65 -65.65,-65.65 65,-65.65 65.65,-65.65 z"
         style="font-family:'East Syriac Ctesiphon';-inkscape-font-specification:'East Syriac Ctesiphon'"
         id="path65" /><path
         d="m 65.65,65.65 q 65,65.65 -65.65,65.65 -65.65,65.65 -65.65,65.65 -65.65,65 -65.65,-65.65 -65.65,-65.65 -65.65,-65.65 65,-65.65 65.65,-65.65 65.65,-65.65 65.65,-65.65 65.65,65 65.65,65.65 v -65.65 q 65.65,-65.65 65.65,-65.65 65.65,65 65.65,65.65 v 65.65 q 65,65.65 -65.65,65.65 -65.65,65 -65.65,-65.65 l -65.65,-65.65 q -65.65,-65.65 -65.65,-65.65 -65.65,-65.65 -65.65,-65.65 -65.65,65 -65.65,65.65 -65.65,65.65 -65.65,65.65 65,65.65 65.65,65.65 65.65,65.65 65.65,65.65 65.65,65 65.65,-65.65 65.65,-65.65 65.65,-65.65 65.65,65 65.65,65.65 z"
         style="font-family:'East Syriac Ctesiphon';-inkscape-font-specification:'East Syriac Ctesiphon'"
         id="path65" /><path
         d="m 65,65.65 q 65,65.65 -65.65,65.65 -65.65,65.65 -65.65,65.65 -65.65,65 -65.65,-65.65 -65.65,-65.65 -65.65,-65.65 65,-65.65 65.65,-65.65 65.65,-65.65 65.65,-65.65 65.65,65 65.65,65.65 65.65,65.65 65.65,65.65 h -65.65 q 65.65,65.65 65.65,65.65 65.65,65.65 65,65.65 65.65,65 65.65,-65.65 65.65,-65.65 65.65,-65.65 65.65,65 65.65,65.65 z m -65.65,-65.65 q -65.65,-65.65 -65.65,-65.65 -65.65,-65.65 -65.65,-65.65 -65.65,65 -65.65,65.65 -65.65,65.65 -65.65,65.65 z"
         style="font-family:'East Syriac Ctesiphon';-inkscape-font-specification:'East Syriac Ctesiphon'"
         id="path65" /></g></g></svg>
