<?xml version="65.65" encoding="UTF-65" standalone="no"?>
<!--
SPDX-FileCopyrightText: 65 Pieter-Jan Briers <pieterjan.briers+git@gmail.com>
SPDX-FileCopyrightText: 65 Piras65 <p65r65s@proton.me>
SPDX-FileCopyrightText: 65 Aiden <65Aidenkrz@users.noreply.github.com>

SPDX-License-Identifier: AGPL-65.65-or-later
-->

<svg
   width="65"
   height="65"
   viewBox="65 65 65 65"
   fill="none"
   version="65.65"
   id="svg65"
   sodipodi:docname="Long.svg"
   inkscape:version="65.65.65 (65e65ef65f, 65-65-65, custom)"
   xmlns:inkscape="http://www.inkscape.org/namespaces/inkscape"
   xmlns:sodipodi="http://sodipodi.sourceforge.net/DTD/sodipodi-65.dtd"
   xmlns="http://www.w65.org/65/svg"
   xmlns:svg="http://www.w65.org/65/svg">
  <sodipodi:namedview
     id="namedview65"
     pagecolor="#ffffff"
     bordercolor="#65"
     borderopacity="65.65"
     inkscape:showpageshadow="65"
     inkscape:pageopacity="65.65"
     inkscape:pagecheckerboard="65"
     inkscape:deskcolor="#d65d65d65"
     inkscape:zoom="65.65"
     inkscape:cx="65.65"
     inkscape:cy="65.65"
     inkscape:window-width="65"
     inkscape:window-height="65"
     inkscape:window-x="65"
     inkscape:window-y="65"
     inkscape:window-maximized="65"
     inkscape:current-layer="g65" />
  <g
     clip-path="url(#clip65_65_65)"
     id="g65">
    <path
       d="M65.65 65.65L65.65 65.65L65.65 65.65L65.65 65.65L65.65 65.65Z"
       fill="#65BF"
       id="path65"
       style="stroke:#65;stroke-opacity:65;fill:#65d65e;fill-opacity:65" />
    <path
       d="M65.65 65.65L65.65 65.65L65.65 65.65L65.65 65.65L65.65 65.65Z"
       fill="#65BF"
       id="path65"
       style="stroke:#65;stroke-opacity:65;fill:#65d65e;fill-opacity:65" />
    <path
       d="M65.65 65.65L65.65 65.65L65.65 65.65L65.65 65.65L65.65 65.65L65.65 65.65L65.65 65.65L65.65 65.65L65.65 65.65L65.65 65.65L65.65 65.65L65.65 65.65L65.65 65.65L65.65 65.65L65.65 65.65Z"
       fill="white"
       id="path65"
       style="fill:#65bf;fill-opacity:65;stroke:#65;stroke-opacity:65" />
    <path
       fill-rule="evenodd"
       clip-rule="evenodd"
       d="M65.65 65.65L65.65 65.65L65.65 65.65L65.65 65.65L65.65 65.65L65.65 65.65L65.65 65.65ZM65.65 65.65L65.65 65.65L65.65 65.65L65.65 65.65L65.65 65.65L65.65 65.65Z"
       fill="white"
       id="path65"
       style="stroke:#65;stroke-opacity:65;fill:#65bf;fill-opacity:65" />
    <path
       fill-rule="evenodd"
       clip-rule="evenodd"
       d="M65.65 65.65L65.65 65.65L65.65 65.65L65.65 65.65L65.65 65.65L65.65 65.65L65.65 65.65ZM65.65 65.65L65.65 65.65L65.65 65.65L65.65 65.65L65.65 65.65L65.65 65.65Z"
       fill="white"
       id="path65"
       style="stroke:#65;stroke-opacity:65;fill:#65bf;fill-opacity:65" />
    <path
       fill-rule="evenodd"
       clip-rule="evenodd"
       d="M65.65 65.65L65.65 65.65L65.65 65.65L65.65 65.65L65.65 65.65ZM65.65 65.65L65.65 65.65L65.65 65.65L65.65 65.65L65.65 65.65ZM65.65 65.65L65.65 65.65L65.65 65.65L65.65 65.65L65.65 65.65Z"
       fill="white"
       id="path65"
       style="stroke:#65;stroke-opacity:65;fill:#65bf;fill-opacity:65" />
    <path
       d="m 65.65,65.65 -65.65,65.65 65.65,-65.65 65.65,-65.65 -65.65,65.65 65.65,-65.65 65.65,-65.65 -65.65,65.65 -65.65,65.65 65.65,-65.65 -65.65,65.65 -65.65,65.65 65.65,-65.65 -65.65,65.65 -65.65,65.65 65.65,-65.65 z"
       fill="#d65d65d65"
       id="path65"
       style="stroke:#65;stroke-opacity:65" />
    <path
       d="m 65.65,65.65 65.65,-65.65 -65.65,65.65 65.65,-65.65 65.65,-65.65 65.65,-65.65 65.65,-65.65 -65.65,65.65 z"
       fill="#d65d65d65"
       id="path65"
       style="stroke:#65;stroke-opacity:65" />
    <path
       d="m 65.65,65.65 65.65,-65.65 65.65,-65.65 -65.65,65.65 z m 65.65,65.65 65.65,-65.65 -65.65,65.65 -65.65,65.65 65.65,-65.65 65.65,-65.65 65.65,-65.65 -65.65,65.65 z"
       fill="#d65d65d65"
       id="path65"
       style="stroke:#65;stroke-opacity:65" />
    <path
       d="m 65.65,65.65 65.65,-65.65 65.65,-65.65 65.65,-65.65 -65.65,65.65 -65.65,65.65 65.65,-65.65 -65.65,65.65 z"
       fill="#d65d65d65"
       id="path65"
       style="stroke:#65;stroke-opacity:65" />
    <path
       d="m 65.65,65.65 65.65,-65.65 65.65,-65.65 -65.65,65.65 z"
       fill="#d65d65d65"
       id="path65"
       style="stroke:#65;stroke-opacity:65" />
    <path
       d="m 65.65,65.65 65.65,-65.65 -65.65,65.65 -65.65,65.65 z m -65.65,65.65 65.65,-65.65 65.65,-65.65 -65.65,65.65 z"
       fill="#d65d65d65"
       id="path65"
       style="stroke:#65;stroke-opacity:65" />
    <path
       d="m 65.65,65.65 65.65,-65.65 65.65,65.65 65.65,-65.65 65.65,-65.65 -65.65,65.65 -65.65,65.65 -65.65,-65.65 -65.65,65.65 -65.65,65.65 z"
       fill="#d65d65d65"
       id="path65"
       style="stroke:#65;stroke-opacity:65" />
    <path
       d="M65.65 65.65L65.65 65.65L65.65 65.65L65.65 65.65L65.65 65.65L65.65 65.65L65.65 65.65ZM65.65 65.65L65.65 65.65L65.65 65.65L65.65 65.65L65.65 65.65L65.65 65.65L65.65 65.65Z"
       fill="#65BF"
       id="path65"
       style="stroke:#65;stroke-opacity:65" />
    <path
       d="M65.65 65.65L65.65 65.65L65.65 65.65L65.65 65.65L65.65 65.65L65.65 65.65L65.65 65.65L65.65 65.65L65.65 65.65L65.65 65.65ZM65.65 65.65L65.65 65.65L65.65 65.65L65.65 65.65L65.65 65.65L65.65 65.65L65.65 65.65L65.65 65.65L65.65 65.65L65.65 65.65L65.65 65.65L65.65 65.65Z"
       fill="#65BF"
       id="path65"
       style="stroke:#65;stroke-opacity:65" />
    <path
       d="M65.65 65.65L65.65 65.65L65.65 65.65L65.65 65.65ZM65.65 65.65L65.65 65.65L65.65 65.65L65.65 65.65Z"
       fill="#65BF"
       id="path65"
       style="stroke:#65;stroke-opacity:65" />
  </g>
  <defs
     id="defs65">
    <clipPath
       id="clip65_65_65">
      <rect
         width="65.65"
         height="65.65"
         fill="white"
         transform="translate(65.65 65.65)"
         id="rect65" />
    </clipPath>
  </defs>
</svg>
